<svg class="marks" width="800" height="552" xmlns="http://www.w3.org/2000/svg"><g transform="translate(61,46)"><g id="g38" class="type-group"><g transform="translate(0,0)"><rect class="background" width="515" height="443" style="pointer-events: none; fill: none;"></rect><g id="g39" class="type-group"><g transform="translate(0,0)"><rect class="background" width="0" height="0" style="pointer-events: none; fill: none;"></rect><g id="g40" class="type-rule" style="pointer-events: none;"><line x1="0" y1="423.36363636363643" x2="515" y2="423.36363636363643" style="fill: none; stroke: #d8d8d8; stroke-width: 1px; opacity: 1;"></line><line x1="0" y1="366.00695670083775" x2="515" y2="366.00695670083775" style="fill: none; stroke: #d8d8d8; stroke-width: 1px; opacity: 1;"></line><line x1="0" y1="308.65027703803906" x2="515" y2="308.65027703803906" style="fill: none; stroke: #d8d8d8; stroke-width: 1px; opacity: 1;"></line><line x1="0" y1="251.29359737524035" x2="515" y2="251.29359737524035" style="fill: none; stroke: #d8d8d8; stroke-width: 1px; opacity: 1;"></line><line x1="0" y1="193.93691771244164" x2="515" y2="193.93691771244164" style="fill: none; stroke: #d8d8d8; stroke-width: 1px; opacity: 1;"></line><line x1="0" y1="136.58023804964296" x2="515" y2="136.58023804964296" style="fill: none; stroke: #d8d8d8; stroke-width: 1px; opacity: 1;"></line><line x1="0" y1="79.22355838684425" x2="515" y2="79.22355838684425" style="fill: none; stroke: #d8d8d8; stroke-width: 1px; opacity: 1;"></line><line x1="0" y1="21.866878724045584" x2="515" y2="21.866878724045584" style="fill: none; stroke: #d8d8d8; stroke-width: 1px; opacity: 1;"></line></g><g id="g41" class="type-rule" style="pointer-events: none;"><line x1="-6" y1="423.36363636363643" x2="0" y2="423.36363636363643" style="fill: none; stroke: #000000; stroke-width: 1px; opacity: 1;"></line><line x1="-6" y1="366.00695670083775" x2="0" y2="366.00695670083775" style="fill: none; stroke: #000000; stroke-width: 1px; opacity: 1;"></line><line x1="-6" y1="308.65027703803906" x2="0" y2="308.65027703803906" style="fill: none; stroke: #000000; stroke-width: 1px; opacity: 1;"></line><line x1="-6" y1="251.29359737524035" x2="0" y2="251.29359737524035" style="fill: none; stroke: #000000; stroke-width: 1px; opacity: 1;"></line><line x1="-6" y1="193.93691771244164" x2="0" y2="193.93691771244164" style="fill: none; stroke: #000000; stroke-width: 1px; opacity: 1;"></line><line x1="-6" y1="136.58023804964296" x2="0" y2="136.58023804964296" style="fill: none; stroke: #000000; stroke-width: 1px; opacity: 1;"></line><line x1="-6" y1="79.22355838684425" x2="0" y2="79.22355838684425" style="fill: none; stroke: #000000; stroke-width: 1px; opacity: 1;"></line><line x1="-6" y1="21.866878724045584" x2="0" y2="21.866878724045584" style="fill: none; stroke: #000000; stroke-width: 1px; opacity: 1;"></line></g><g id="g42" class="type-rule" style="pointer-events: none;"></g><g id="g43" class="type-text"><text x="-9" y="423.36363636363643" text-anchor="end" dy=".35em" style="font-style: normal; font-variant: normal; font-weight: normal; font-size: 11px; line-height: normal; font-family: sans-serif; fill: #000000; opacity: 1;">0</text><text x="-9" y="366.00695670083775" text-anchor="end" dy=".35em" style="font-style: normal; font-variant: normal; font-weight: normal; font-size: 11px; line-height: normal; font-family: sans-serif; fill: #000000; opacity: 1;">50</text><text x="-9" y="308.65027703803906" text-anchor="end" dy=".35em" style="font-style: normal; font-variant: normal; font-weight: normal; font-size: 11px; line-height: normal; font-family: sans-serif; fill: #000000; opacity: 1;">100</text><text x="-9" y="251.29359737524035" text-anchor="end" dy=".35em" style="font-style: normal; font-variant: normal; font-weight: normal; font-size: 11px; line-height: normal; font-family: sans-serif; fill: #000000; opacity: 1;">150</text><text x="-9" y="193.93691771244164" text-anchor="end" dy=".35em" style="font-style: normal; font-variant: normal; font-weight: normal; font-size: 11px; line-height: normal; font-family: sans-serif; fill: #000000; opacity: 1;">200</text><text x="-9" y="136.58023804964296" text-anchor="end" dy=".35em" style="font-style: normal; font-variant: normal; font-weight: normal; font-size: 11px; line-height: normal; font-family: sans-serif; fill: #000000; opacity: 1;">250</text><text x="-9" y="79.22355838684425" text-anchor="end" dy=".35em" style="font-style: normal; font-variant: normal; font-weight: normal; font-size: 11px; line-height: normal; font-family: sans-serif; fill: #000000; opacity: 1;">300</text><text x="-9" y="21.866878724045584" text-anchor="end" dy=".35em" style="font-style: normal; font-variant: normal; font-weight: normal; font-size: 11px; line-height: normal; font-family: sans-serif; fill: #000000; opacity: 1;">350</text></g><g id="g44" class="type-path" style="pointer-events: none;"><path transform="translate(0.5,0.5)" d="M-6,0H0V443H-6" style="fill: none; stroke: #000000; stroke-width: 1px;"></path></g><g id="g45" class="type-text"><text x="-50" y="221" text-anchor="middle" transform="rotate(-90 -50,221)" dy=".35em" style="font-weight: bold; font-style: normal; font-variant: normal; font-size: 11px; line-height: normal; font-family: sans-serif; fill: #000000;">Aantal studenten in de bibs</text></g></g></g><g id="g46" class="type-group"><g transform="translate(0,443)"><rect class="background" width="0" height="0" style="pointer-events: none; fill: none;"></rect><g id="g47" class="type-rule" style="pointer-events: none;"><line x1="8.806451612903226" y1="-443" x2="8.806451612903226" y2="0" style="fill: none; stroke: #d8d8d8; stroke-width: 1px; opacity: 1;"></line><line x1="42.03225806451613" y1="-443" x2="42.03225806451613" y2="0" style="fill: none; stroke: #d8d8d8; stroke-width: 1px; opacity: 1;"></line><line x1="75.25806451612904" y1="-443" x2="75.25806451612904" y2="0" style="fill: none; stroke: #d8d8d8; stroke-width: 1px; opacity: 1;"></line><line x1="108.48387096774195" y1="-443" x2="108.48387096774195" y2="0" style="fill: none; stroke: #d8d8d8; stroke-width: 1px; opacity: 1;"></line><line x1="141.70967741935485" y1="-443" x2="141.70967741935485" y2="0" style="fill: none; stroke: #d8d8d8; stroke-width: 1px; opacity: 1;"></line><line x1="174.93548387096774" y1="-443" x2="174.93548387096774" y2="0" style="fill: none; stroke: #d8d8d8; stroke-width: 1px; opacity: 1;"></line><line x1="208.16129032258067" y1="-443" x2="208.16129032258067" y2="0" style="fill: none; stroke: #d8d8d8; stroke-width: 1px; opacity: 1;"></line><line x1="241.38709677419357" y1="-443" x2="241.38709677419357" y2="0" style="fill: none; stroke: #d8d8d8; stroke-width: 1px; opacity: 1;"></line><line x1="274.61290322580646" y1="-443" x2="274.61290322580646" y2="0" style="fill: none; stroke: #d8d8d8; stroke-width: 1px; opacity: 1;"></line><line x1="307.8387096774194" y1="-443" x2="307.8387096774194" y2="0" style="fill: none; stroke: #d8d8d8; stroke-width: 1px; opacity: 1;"></line><line x1="341.06451612903226" y1="-443" x2="341.06451612903226" y2="0" style="fill: none; stroke: #d8d8d8; stroke-width: 1px; opacity: 1;"></line><line x1="374.2903225806452" y1="-443" x2="374.2903225806452" y2="0" style="fill: none; stroke: #d8d8d8; stroke-width: 1px; opacity: 1;"></line><line x1="407.5161290322581" y1="-443" x2="407.5161290322581" y2="0" style="fill: none; stroke: #d8d8d8; stroke-width: 1px; opacity: 1;"></line><line x1="440.741935483871" y1="-443" x2="440.741935483871" y2="0" style="fill: none; stroke: #d8d8d8; stroke-width: 1px; opacity: 1;"></line><line x1="473.9677419354839" y1="-443" x2="473.9677419354839" y2="0" style="fill: none; stroke: #d8d8d8; stroke-width: 1px; opacity: 1;"></line><line x1="507.19354838709677" y1="-443" x2="507.19354838709677" y2="0" style="fill: none; stroke: #d8d8d8; stroke-width: 1px; opacity: 1;"></line></g><g id="g48" class="type-rule" style="pointer-events: none;"><line x1="8.806451612903226" y1="0" x2="8.806451612903226" y2="6" style="fill: none; stroke: #000000; stroke-width: 1px; opacity: 1;"></line><line x1="42.03225806451613" y1="0" x2="42.03225806451613" y2="6" style="fill: none; stroke: #000000; stroke-width: 1px; opacity: 1;"></line><line x1="75.25806451612904" y1="0" x2="75.25806451612904" y2="6" style="fill: none; stroke: #000000; stroke-width: 1px; opacity: 1;"></line><line x1="108.48387096774195" y1="0" x2="108.48387096774195" y2="6" style="fill: none; stroke: #000000; stroke-width: 1px; opacity: 1;"></line><line x1="141.70967741935485" y1="0" x2="141.70967741935485" y2="6" style="fill: none; stroke: #000000; stroke-width: 1px; opacity: 1;"></line><line x1="174.93548387096774" y1="0" x2="174.93548387096774" y2="6" style="fill: none; stroke: #000000; stroke-width: 1px; opacity: 1;"></line><line x1="208.16129032258067" y1="0" x2="208.16129032258067" y2="6" style="fill: none; stroke: #000000; stroke-width: 1px; opacity: 1;"></line><line x1="241.38709677419357" y1="0" x2="241.38709677419357" y2="6" style="fill: none; stroke: #000000; stroke-width: 1px; opacity: 1;"></line><line x1="274.61290322580646" y1="0" x2="274.61290322580646" y2="6" style="fill: none; stroke: #000000; stroke-width: 1px; opacity: 1;"></line><line x1="307.8387096774194" y1="0" x2="307.8387096774194" y2="6" style="fill: none; stroke: #000000; stroke-width: 1px; opacity: 1;"></line><line x1="341.06451612903226" y1="0" x2="341.06451612903226" y2="6" style="fill: none; stroke: #000000; stroke-width: 1px; opacity: 1;"></line><line x1="374.2903225806452" y1="0" x2="374.2903225806452" y2="6" style="fill: none; stroke: #000000; stroke-width: 1px; opacity: 1;"></line><line x1="407.5161290322581" y1="0" x2="407.5161290322581" y2="6" style="fill: none; stroke: #000000; stroke-width: 1px; opacity: 1;"></line><line x1="440.741935483871" y1="0" x2="440.741935483871" y2="6" style="fill: none; stroke: #000000; stroke-width: 1px; opacity: 1;"></line><line x1="473.9677419354839" y1="0" x2="473.9677419354839" y2="6" style="fill: none; stroke: #000000; stroke-width: 1px; opacity: 1;"></line><line x1="507.19354838709677" y1="0" x2="507.19354838709677" y2="6" style="fill: none; stroke: #000000; stroke-width: 1px; opacity: 1;"></line></g><g id="g49" class="type-rule" style="pointer-events: none;"></g><g id="g50" class="type-text"><text x="8.806451612903226" y="9" text-anchor="middle" dy=".9em" style="font-style: normal; font-variant: normal; font-weight: normal; font-size: 11px; line-height: normal; font-family: sans-serif; fill: #000000; opacity: 1;">08-09</text><text x="42.03225806451613" y="9" text-anchor="middle" dy=".9em" style="font-style: normal; font-variant: normal; font-weight: normal; font-size: 11px; line-height: normal; font-family: sans-serif; fill: #000000; opacity: 1;">09-10</text><text x="75.25806451612904" y="9" text-anchor="middle" dy=".9em" style="font-style: normal; font-variant: normal; font-weight: normal; font-size: 11px; line-height: normal; font-family: sans-serif; fill: #000000; opacity: 1;">10-11</text><text x="108.48387096774195" y="9" text-anchor="middle" dy=".9em" style="font-style: normal; font-variant: normal; font-weight: normal; font-size: 11px; line-height: normal; font-family: sans-serif; fill: #000000; opacity: 1;">11-12</text><text x="141.70967741935485" y="9" text-anchor="middle" dy=".9em" style="font-style: normal; font-variant: normal; font-weight: normal; font-size: 11px; line-height: normal; font-family: sans-serif; fill: #000000; opacity: 1;">12-13</text><text x="174.93548387096774" y="9" text-anchor="middle" dy=".9em" style="font-style: normal; font-variant: normal; font-weight: normal; font-size: 11px; line-height: normal; font-family: sans-serif; fill: #000000; opacity: 1;">13-14</text><text x="208.16129032258067" y="9" text-anchor="middle" dy=".9em" style="font-style: normal; font-variant: normal; font-weight: normal; font-size: 11px; line-height: normal; font-family: sans-serif; fill: #000000; opacity: 1;">14-15</text><text x="241.38709677419357" y="9" text-anchor="middle" dy=".9em" style="font-style: normal; font-variant: normal; font-weight: normal; font-size: 11px; line-height: normal; font-family: sans-serif; fill: #000000; opacity: 1;">15-16</text><text x="274.61290322580646" y="9" text-anchor="middle" dy=".9em" style="font-style: normal; font-variant: normal; font-weight: normal; font-size: 11px; line-height: normal; font-family: sans-serif; fill: #000000; opacity: 1;">16-17</text><text x="307.8387096774194" y="9" text-anchor="middle" dy=".9em" style="font-style: normal; font-variant: normal; font-weight: normal; font-size: 11px; line-height: normal; font-family: sans-serif; fill: #000000; opacity: 1;">17-18</text><text x="341.06451612903226" y="9" text-anchor="middle" dy=".9em" style="font-style: normal; font-variant: normal; font-weight: normal; font-size: 11px; line-height: normal; font-family: sans-serif; fill: #000000; opacity: 1;">18-19</text><text x="374.2903225806452" y="9" text-anchor="middle" dy=".9em" style="font-style: normal; font-variant: normal; font-weight: normal; font-size: 11px; line-height: normal; font-family: sans-serif; fill: #000000; opacity: 1;">19-20</text><text x="407.5161290322581" y="9" text-anchor="middle" dy=".9em" style="font-style: normal; font-variant: normal; font-weight: normal; font-size: 11px; line-height: normal; font-family: sans-serif; fill: #000000; opacity: 1;">20-21</text><text x="440.741935483871" y="9" text-anchor="middle" dy=".9em" style="font-style: normal; font-variant: normal; font-weight: normal; font-size: 11px; line-height: normal; font-family: sans-serif; fill: #000000; opacity: 1;">21-22</text><text x="473.9677419354839" y="9" text-anchor="middle" dy=".9em" style="font-style: normal; font-variant: normal; font-weight: normal; font-size: 11px; line-height: normal; font-family: sans-serif; fill: #000000; opacity: 1;">22-23</text><text x="507.19354838709677" y="9" text-anchor="middle" dy=".9em" style="font-style: normal; font-variant: normal; font-weight: normal; font-size: 11px; line-height: normal; font-family: sans-serif; fill: #000000; opacity: 1;">23-24</text></g><g id="g51" class="type-path" style="pointer-events: none;"><path transform="translate(0.5,0.5)" d="M0,6V0H515V6" style="fill: none; stroke: #000000; stroke-width: 1px;"></path></g><g id="g52" class="type-text"><text x="257" y="50" text-anchor="middle" dy=".35em" style="font-weight: bold; font-style: normal; font-variant: normal; font-size: 11px; line-height: normal; font-family: sans-serif; fill: #000000;">Uur van de dag</text></g></g></g><g id="g53" class="type-group"><g transform="translate(0,0)"><rect class="background" width="0" height="0" style="pointer-events: none; fill: none;"></rect><g id="g54" class="type-rule" style="pointer-events: none;"><line x1="8.806451612903226" y1="0" x2="8.806451612903226" y2="443" style="fill: none; stroke: #d8d8d8; stroke-width: 1px; opacity: 1;"></line><line x1="42.03225806451613" y1="0" x2="42.03225806451613" y2="443" style="fill: none; stroke: #d8d8d8; stroke-width: 1px; opacity: 1;"></line><line x1="75.25806451612904" y1="0" x2="75.25806451612904" y2="443" style="fill: none; stroke: #d8d8d8; stroke-width: 1px; opacity: 1;"></line><line x1="108.48387096774195" y1="0" x2="108.48387096774195" y2="443" style="fill: none; stroke: #d8d8d8; stroke-width: 1px; opacity: 1;"></line><line x1="141.70967741935485" y1="0" x2="141.70967741935485" y2="443" style="fill: none; stroke: #d8d8d8; stroke-width: 1px; opacity: 1;"></line><line x1="174.93548387096774" y1="0" x2="174.93548387096774" y2="443" style="fill: none; stroke: #d8d8d8; stroke-width: 1px; opacity: 1;"></line><line x1="208.16129032258067" y1="0" x2="208.16129032258067" y2="443" style="fill: none; stroke: #d8d8d8; stroke-width: 1px; opacity: 1;"></line><line x1="241.38709677419357" y1="0" x2="241.38709677419357" y2="443" style="fill: none; stroke: #d8d8d8; stroke-width: 1px; opacity: 1;"></line><line x1="274.61290322580646" y1="0" x2="274.61290322580646" y2="443" style="fill: none; stroke: #d8d8d8; stroke-width: 1px; opacity: 1;"></line><line x1="307.8387096774194" y1="0" x2="307.8387096774194" y2="443" style="fill: none; stroke: #d8d8d8; stroke-width: 1px; opacity: 1;"></line><line x1="341.06451612903226" y1="0" x2="341.06451612903226" y2="443" style="fill: none; stroke: #d8d8d8; stroke-width: 1px; opacity: 1;"></line><line x1="374.2903225806452" y1="0" x2="374.2903225806452" y2="443" style="fill: none; stroke: #d8d8d8; stroke-width: 1px; opacity: 1;"></line><line x1="407.5161290322581" y1="0" x2="407.5161290322581" y2="443" style="fill: none; stroke: #d8d8d8; stroke-width: 1px; opacity: 1;"></line><line x1="440.741935483871" y1="0" x2="440.741935483871" y2="443" style="fill: none; stroke: #d8d8d8; stroke-width: 1px; opacity: 1;"></line><line x1="473.9677419354839" y1="0" x2="473.9677419354839" y2="443" style="fill: none; stroke: #d8d8d8; stroke-width: 1px; opacity: 1;"></line><line x1="507.19354838709677" y1="0" x2="507.19354838709677" y2="443" style="fill: none; stroke: #d8d8d8; stroke-width: 1px; opacity: 1;"></line></g><g id="g55" class="type-rule" style="pointer-events: none;"><line x1="8.806451612903226" y1="-6" x2="8.806451612903226" y2="0" style="fill: none; stroke: #000000; stroke-width: 0px; opacity: 1;"></line><line x1="42.03225806451613" y1="-6" x2="42.03225806451613" y2="0" style="fill: none; stroke: #000000; stroke-width: 0px; opacity: 1;"></line><line x1="75.25806451612904" y1="-6" x2="75.25806451612904" y2="0" style="fill: none; stroke: #000000; stroke-width: 0px; opacity: 1;"></line><line x1="108.48387096774195" y1="-6" x2="108.48387096774195" y2="0" style="fill: none; stroke: #000000; stroke-width: 0px; opacity: 1;"></line><line x1="141.70967741935485" y1="-6" x2="141.70967741935485" y2="0" style="fill: none; stroke: #000000; stroke-width: 0px; opacity: 1;"></line><line x1="174.93548387096774" y1="-6" x2="174.93548387096774" y2="0" style="fill: none; stroke: #000000; stroke-width: 0px; opacity: 1;"></line><line x1="208.16129032258067" y1="-6" x2="208.16129032258067" y2="0" style="fill: none; stroke: #000000; stroke-width: 0px; opacity: 1;"></line><line x1="241.38709677419357" y1="-6" x2="241.38709677419357" y2="0" style="fill: none; stroke: #000000; stroke-width: 0px; opacity: 1;"></line><line x1="274.61290322580646" y1="-6" x2="274.61290322580646" y2="0" style="fill: none; stroke: #000000; stroke-width: 0px; opacity: 1;"></line><line x1="307.8387096774194" y1="-6" x2="307.8387096774194" y2="0" style="fill: none; stroke: #000000; stroke-width: 0px; opacity: 1;"></line><line x1="341.06451612903226" y1="-6" x2="341.06451612903226" y2="0" style="fill: none; stroke: #000000; stroke-width: 0px; opacity: 1;"></line><line x1="374.2903225806452" y1="-6" x2="374.2903225806452" y2="0" style="fill: none; stroke: #000000; stroke-width: 0px; opacity: 1;"></line><line x1="407.5161290322581" y1="-6" x2="407.5161290322581" y2="0" style="fill: none; stroke: #000000; stroke-width: 0px; opacity: 1;"></line><line x1="440.741935483871" y1="-6" x2="440.741935483871" y2="0" style="fill: none; stroke: #000000; stroke-width: 0px; opacity: 1;"></line><line x1="473.9677419354839" y1="-6" x2="473.9677419354839" y2="0" style="fill: none; stroke: #000000; stroke-width: 0px; opacity: 1;"></line><line x1="507.19354838709677" y1="-6" x2="507.19354838709677" y2="0" style="fill: none; stroke: #000000; stroke-width: 0px; opacity: 1;"></line></g><g id="g56" class="type-rule" style="pointer-events: none;"></g><g id="g57" class="type-text"><text x="8.806451612903226" y="-9" text-anchor="middle" style="font-style: normal; font-variant: normal; font-weight: normal; font-size: 0px; line-height: normal; font-family: sans-serif; fill: #000000; opacity: 1;">08-09</text><text x="42.03225806451613" y="-9" text-anchor="middle" style="font-style: normal; font-variant: normal; font-weight: normal; font-size: 0px; line-height: normal; font-family: sans-serif; fill: #000000; opacity: 1;">09-10</text><text x="75.25806451612904" y="-9" text-anchor="middle" style="font-style: normal; font-variant: normal; font-weight: normal; font-size: 0px; line-height: normal; font-family: sans-serif; fill: #000000; opacity: 1;">10-11</text><text x="108.48387096774195" y="-9" text-anchor="middle" style="font-style: normal; font-variant: normal; font-weight: normal; font-size: 0px; line-height: normal; font-family: sans-serif; fill: #000000; opacity: 1;">11-12</text><text x="141.70967741935485" y="-9" text-anchor="middle" style="font-style: normal; font-variant: normal; font-weight: normal; font-size: 0px; line-height: normal; font-family: sans-serif; fill: #000000; opacity: 1;">12-13</text><text x="174.93548387096774" y="-9" text-anchor="middle" style="font-style: normal; font-variant: normal; font-weight: normal; font-size: 0px; line-height: normal; font-family: sans-serif; fill: #000000; opacity: 1;">13-14</text><text x="208.16129032258067" y="-9" text-anchor="middle" style="font-style: normal; font-variant: normal; font-weight: normal; font-size: 0px; line-height: normal; font-family: sans-serif; fill: #000000; opacity: 1;">14-15</text><text x="241.38709677419357" y="-9" text-anchor="middle" style="font-style: normal; font-variant: normal; font-weight: normal; font-size: 0px; line-height: normal; font-family: sans-serif; fill: #000000; opacity: 1;">15-16</text><text x="274.61290322580646" y="-9" text-anchor="middle" style="font-style: normal; font-variant: normal; font-weight: normal; font-size: 0px; line-height: normal; font-family: sans-serif; fill: #000000; opacity: 1;">16-17</text><text x="307.8387096774194" y="-9" text-anchor="middle" style="font-style: normal; font-variant: normal; font-weight: normal; font-size: 0px; line-height: normal; font-family: sans-serif; fill: #000000; opacity: 1;">17-18</text><text x="341.06451612903226" y="-9" text-anchor="middle" style="font-style: normal; font-variant: normal; font-weight: normal; font-size: 0px; line-height: normal; font-family: sans-serif; fill: #000000; opacity: 1;">18-19</text><text x="374.2903225806452" y="-9" text-anchor="middle" style="font-style: normal; font-variant: normal; font-weight: normal; font-size: 0px; line-height: normal; font-family: sans-serif; fill: #000000; opacity: 1;">19-20</text><text x="407.5161290322581" y="-9" text-anchor="middle" style="font-style: normal; font-variant: normal; font-weight: normal; font-size: 0px; line-height: normal; font-family: sans-serif; fill: #000000; opacity: 1;">20-21</text><text x="440.741935483871" y="-9" text-anchor="middle" style="font-style: normal; font-variant: normal; font-weight: normal; font-size: 0px; line-height: normal; font-family: sans-serif; fill: #000000; opacity: 1;">21-22</text><text x="473.9677419354839" y="-9" text-anchor="middle" style="font-style: normal; font-variant: normal; font-weight: normal; font-size: 0px; line-height: normal; font-family: sans-serif; fill: #000000; opacity: 1;">22-23</text><text x="507.19354838709677" y="-9" text-anchor="middle" style="font-style: normal; font-variant: normal; font-weight: normal; font-size: 0px; line-height: normal; font-family: sans-serif; fill: #000000; opacity: 1;">23-24</text></g><g id="g58" class="type-path" style="pointer-events: none;"><path transform="translate(0.5,0.5)" d="M0,-6V0H515V-6" style="fill: none; stroke: #ffffff; stroke-width: 1px;"></path></g><g id="g59" class="type-text"><text x="257" y="-35" text-anchor="middle" dy=".35em" style="font-weight: bold; font-style: normal; font-variant: normal; font-size: 11px; line-height: normal; font-family: sans-serif; fill: #000000;">Procentuele bezetting per uur van de week tijdens het eerste semester</text></g></g></g><g id="g60" class="type-group"><g transform="translate(0,0)"><rect class="background" width="0" height="0" style="fill: none;"></rect><g id="g61" class="type-line"><path d="M8.306451612903226,370.1611657135621L41.53225806451613,343.96063474268925L74.75806451612904,311.46406404969423L107.98387096774195,296.6340133254787L141.20967741935485,308.00635746090455L174.43548387096774,297.7944419952779L207.66129032258067,296.2401465875831L240.88709677419357,298.1594852255669L274.11290322580646,306.02550054656837L307.3387096774194,319.01265855420314L340.56451612903226,326.1553461266719L373.7903225806452,335.97109014001103L407.0161290322581,343.7232023732363" style="fill: none; stroke: #1f77b4; stroke-width: 2px;"></path></g></g><g transform="translate(0,0)"><rect class="background" width="0" height="0" style="fill: none;"></rect><g id="g62" class="type-line"><path d="M41.53225806451613,354.64569791110915L74.75806451612904,306.62773984296376L107.98387096774195,279.3228615312684L141.20967741935485,314.85262962874646L174.43548387096774,307.07045942072824L207.66129032258067,233.90734974662112L240.88709677419357,230.8217563095651L274.11290322580646,253.84436401897372L307.3387096774194,277.0473920565329L340.56451612903226,346.0557676381321L373.7903225806452,366.6460231775011L407.0161290322581,274.85562069190416L440.241935483871,318.5367415625031" style="fill: none; stroke: #ff7f0e; stroke-width: 2px;"></path></g></g><g transform="translate(0,0)"><rect class="background" width="0" height="0" style="fill: none;"></rect><g id="g63" class="type-line"><path d="M8.306451612903226,228.0254893177897L41.53225806451613,287.0124250504143L74.75806451612904,225.5939175336003L107.98387096774195,177.83862520716826L141.20967741935485,229.72553285031367L174.43548387096774,235.68383292345635L207.66129032258067,139.3401035294363L240.88709677419357,144.7693963292826L274.11290322580646,156.48912274838085L307.3387096774194,152.8148976740764L340.56451612903226,266.9720778802034L373.7903225806452,299.9153663957522L407.0161290322581,285.8279604837065L440.241935483871,329.8616250975372" style="fill: none; stroke: #2ca02c; stroke-width: 2px;"></path></g></g><g transform="translate(0,0)"><rect class="background" width="0" height="0" style="fill: none;"></rect><g id="g64" class="type-line"><path d="M8.306451612903226,339.5598921981465L41.53225806451613,291.9950929673443L74.75806451612904,238.93565529964218L107.98387096774195,187.58307681252592L141.20967741935485,248.86759708651215L174.43548387096774,233.3149900057418L207.66129032258067,134.16358924157763L240.88709677419357,145.74959210618687L274.11290322580646,174.4655967369569L307.3387096774194,190.0376927083951L340.56451612903226,273.1380582718823L373.7903225806452,316.26911532371656L407.0161290322581,307.5761082831945L440.241935483871,341.50373100466595" style="fill: none; stroke: #d62728; stroke-width: 2px;"></path></g></g><g transform="translate(0,0)"><rect class="background" width="0" height="0" style="fill: none;"></rect><g id="g65" class="type-line"><path d="M41.53225806451613,361.6485897896585L74.75806451612904,320.5952854190035L107.98387096774195,281.38137823225765L141.20967741935485,300.32659998518113L174.43548387096774,277.3203336826744L207.66129032258067,198.4254728076916L240.88709677419357,187.96349426108662L274.11290322580646,207.56797887079068L307.3387096774194,225.28120002458314L340.56451612903226,293.6416403570039L373.7903225806452,330.39777384846633L407.0161290322581,331.7851723308389L440.241935483871,354.8928012519755" style="fill: none; stroke: #9467bd; stroke-width: 2px;"></path></g></g><g transform="translate(0,0)"><rect class="background" width="0" height="0" style="fill: none;"></rect><g id="g66" class="type-line"><path d="M41.53225806451613,407.37622921230604L74.75806451612904,395.88295891801357L107.98387096774195,387.7780776686893L141.20967741935485,390.51026649176634L174.43548387096774,390.86130641835086L207.66129032258067,379.42341877155656L240.88709677419357,377.34597780696873L274.11290322580646,379.8462429923265L307.3387096774194,385.53998706490154L340.56451612903226,399.6774242508107L373.7903225806452,398.6177197191353L407.0161290322581,398.31861902207226L440.241935483871,405.0483169156055" style="fill: none; stroke: #8c564b; stroke-width: 2px;"></path></g></g><g transform="translate(0,0)"><rect class="background" width="0" height="0" style="fill: none;"></rect><g id="g67" class="type-line"><path d="M41.53225806451613,307.3279777598817L74.75806451612904,257.15631719663116L107.98387096774195,215.80839751684664L141.20967741935485,267.89770725609117L174.43548387096774,268.61610599068655L207.66129032258067,179.23278816479652L240.88709677419357,182.07496722064093L274.11290322580646,213.40228639195283L307.3387096774194,234.7026509167799L340.56451612903226,290.62250817494987L373.7903225806452,308.94179038881725L407.0161290322581,280.7373327740398L440.241935483871,270.39701629981965L473.4677419354839,331.15779536083573" style="fill: none; stroke: #e377c2; stroke-width: 2px;"></path></g></g><g transform="translate(0,0)"><rect class="background" width="0" height="0" style="fill: none;"></rect><g id="g68" class="type-line"><path d="M8.306451612903226,248.6947869759517L41.53225806451613,185.38340245609413L74.75806451612904,120.57384193834957L107.98387096774195,70.10998866375124L141.20967741935485,148.33688436623297L174.43548387096774,124.86405850321253L207.66129032258067,37.72230378053106L240.88709677419357,20.136363636363964L274.11290322580646,26.429515186295735L307.3387096774194,72.4336924398901L340.56451612903226,180.4778900671827L373.7903225806452,142.88173049321128L407.0161290322581,80.51797865548953L440.241935483871,95.89635145524585L473.4677419354839,170.54610317531274L506.69354838709677,301.9147243454957" style="fill: none; stroke: #7f7f7f; stroke-width: 2px;"></path></g></g><g transform="translate(0,0)"><rect class="background" width="0" height="0" style="fill: none;"></rect><g id="g69" class="type-line"><path d="M8.306451612903226,395.2401718330799L41.53225806451613,366.32363310033537L74.75806451612904,338.7238773531727L107.98387096774195,315.61951334482086L141.20967741935485,341.7575888083266L174.43548387096774,336.97037551701266L207.66129032258067,305.6253818693842L240.88709677419357,308.93493589882206L274.11290322580646,319.4651955097144L307.3387096774194,334.2684661308187L340.56451612903226,377.1368018730943L373.7903225806452,376.68984532484825L407.0161290322581,368.67859390821485L440.241935483871,383.1232437410831" style="fill: none; stroke: #bcbd22; stroke-width: 2px;"></path></g></g><g transform="translate(0,0)"><rect class="background" width="0" height="0" style="fill: none;"></rect><g id="g70" class="type-line"><path d="M8.306451612903226,398.8907901802137L41.53225806451613,376.5042306598022L74.75806451612904,352.741126669515L107.98387096774195,331.17693604545775L141.20967741935485,349.07991688805896L174.43548387096774,345.4186710845697L207.66129032258067,313.65786374045734L240.88709677419357,308.632890844559L274.11290322580646,321.44455697893744L307.3387096774194,337.510898566556L340.56451612903226,375.25996579074695L373.7903225806452,374.93399590282155L407.0161290322581,365.6447885300326L440.241935483871,378.6999080497016" style="fill: none; stroke: #17becf; stroke-width: 2px;"></path></g></g></g><g id="g71" class="type-group"><g transform="translate(528.2247983870968,0.5)"><rect class="background" width="207" height="166" style="pointer-events: none; fill: none;"></rect><g id="g72" class="type-text" style="pointer-events: none;"><text x="3" y="3" text-anchor="start" dy=".9em" style="font-weight: bold; font-style: normal; font-variant: normal; font-size: 11px; line-height: normal; font-family: sans-serif; fill: #000000; opacity: 1;">name</text></g><g id="g73" class="type-symbol" style="pointer-events: none;"><path transform="translate(7.5,23)" d="M0,3.989422804014327A3.989422804014327,3.989422804014327 0 1,1 0,-3.989422804014327A3.989422804014327,3.989422804014327 0 1,1 0,3.989422804014327Z" style="fill: none; stroke: #1f77b4; stroke-width: 1px; opacity: 1;"></path><path transform="translate(7.5,38)" d="M0,3.989422804014327A3.989422804014327,3.989422804014327 0 1,1 0,-3.989422804014327A3.989422804014327,3.989422804014327 0 1,1 0,3.989422804014327Z" style="fill: none; stroke: #ff7f0e; stroke-width: 1px; opacity: 1;"></path><path transform="translate(7.5,53)" d="M0,3.989422804014327A3.989422804014327,3.989422804014327 0 1,1 0,-3.989422804014327A3.989422804014327,3.989422804014327 0 1,1 0,3.989422804014327Z" style="fill: none; stroke: #2ca02c; stroke-width: 1px; opacity: 1;"></path><path transform="translate(7.5,68)" d="M0,3.989422804014327A3.989422804014327,3.989422804014327 0 1,1 0,-3.989422804014327A3.989422804014327,3.989422804014327 0 1,1 0,3.989422804014327Z" style="fill: none; stroke: #d62728; stroke-width: 1px; opacity: 1;"></path><path transform="translate(7.5,83)" d="M0,3.989422804014327A3.989422804014327,3.989422804014327 0 1,1 0,-3.989422804014327A3.989422804014327,3.989422804014327 0 1,1 0,3.989422804014327Z" style="fill: none; stroke: #9467bd; stroke-width: 1px; opacity: 1;"></path><path transform="translate(7.5,98)" d="M0,3.989422804014327A3.989422804014327,3.989422804014327 0 1,1 0,-3.989422804014327A3.989422804014327,3.989422804014327 0 1,1 0,3.989422804014327Z" style="fill: none; stroke: #8c564b; stroke-width: 1px; opacity: 1;"></path><path transform="translate(7.5,113)" d="M0,3.989422804014327A3.989422804014327,3.989422804014327 0 1,1 0,-3.989422804014327A3.989422804014327,3.989422804014327 0 1,1 0,3.989422804014327Z" style="fill: none; stroke: #e377c2; stroke-width: 1px; opacity: 1;"></path><path transform="translate(7.5,128)" d="M0,3.989422804014327A3.989422804014327,3.989422804014327 0 1,1 0,-3.989422804014327A3.989422804014327,3.989422804014327 0 1,1 0,3.989422804014327Z" style="fill: none; stroke: #7f7f7f; stroke-width: 1px; opacity: 1;"></path><path transform="translate(7.5,143)" d="M0,3.989422804014327A3.989422804014327,3.989422804014327 0 1,1 0,-3.989422804014327A3.989422804014327,3.989422804014327 0 1,1 0,3.989422804014327Z" style="fill: none; stroke: #bcbd22; stroke-width: 1px; opacity: 1;"></path><path transform="translate(7.5,158)" d="M0,3.989422804014327A3.989422804014327,3.989422804014327 0 1,1 0,-3.989422804014327A3.989422804014327,3.989422804014327 0 1,1 0,3.989422804014327Z" style="fill: none; stroke: #17becf; stroke-width: 1px; opacity: 1;"></path></g><g id="g74" class="type-text" style="pointer-events: none;"><text x="16" y="23" text-anchor="start" dy=".35em" style="font-style: normal; font-variant: normal; font-weight: normal; font-size: 10px; line-height: normal; font-family: sans-serif; fill: #000000; opacity: 1;">2Bergen - Biomedische Bibliotheek</text><text x="16" y="38" text-anchor="start" dy=".35em" style="font-style: normal; font-variant: normal; font-weight: normal; font-size: 10px; line-height: normal; font-family: sans-serif; fill: #000000; opacity: 1;">Arts</text><text x="16" y="53" text-anchor="start" dy=".35em" style="font-style: normal; font-variant: normal; font-weight: normal; font-size: 10px; line-height: normal; font-family: sans-serif; fill: #000000; opacity: 1;">Business and Economics</text><text x="16" y="68" text-anchor="start" dy=".35em" style="font-style: normal; font-variant: normal; font-weight: normal; font-size: 10px; line-height: normal; font-family: sans-serif; fill: #000000; opacity: 1;">Campuslibrary Arenberg</text><text x="16" y="83" text-anchor="start" dy=".35em" style="font-style: normal; font-variant: normal; font-weight: normal; font-size: 10px; line-height: normal; font-family: sans-serif; fill: #000000; opacity: 1;">Central Library</text><text x="16" y="98" text-anchor="start" dy=".35em" style="font-style: normal; font-variant: normal; font-weight: normal; font-size: 10px; line-height: normal; font-family: sans-serif; fill: #000000; opacity: 1;">Institute of Philosophy</text><text x="16" y="113" text-anchor="start" dy=".35em" style="font-style: normal; font-variant: normal; font-weight: normal; font-size: 10px; line-height: normal; font-family: sans-serif; fill: #000000; opacity: 1;">Law</text><text x="16" y="128" text-anchor="start" dy=".35em" style="font-style: normal; font-variant: normal; font-weight: normal; font-size: 10px; line-height: normal; font-family: sans-serif; fill: #000000; opacity: 1;">Learning Centre AGORA</text><text x="16" y="143" text-anchor="start" dy=".35em" style="font-style: normal; font-variant: normal; font-weight: normal; font-size: 10px; line-height: normal; font-family: sans-serif; fill: #000000; opacity: 1;">Psychology and Educational Sciences</text><text x="16" y="158" text-anchor="start" dy=".35em" style="font-style: normal; font-variant: normal; font-weight: normal; font-size: 10px; line-height: normal; font-family: sans-serif; fill: #000000; opacity: 1;">Social Sciences</text></g></g></g></g></g></g></svg>