<svg class="marks" width="800" height="552" xmlns="http://www.w3.org/2000/svg"><g transform="translate(61,46)"><g id="g37" class="type-group"><g transform="translate(0,0)"><rect class="background" width="515" height="443" style="pointer-events: none; fill: none;"></rect><g id="g38" class="type-group"><g transform="translate(0,0)"><rect class="background" width="0" height="0" style="pointer-events: none; fill: none;"></rect><g id="g39" class="type-rule" style="pointer-events: none;"><line x1="0" y1="423.3636363636363" x2="515" y2="423.3636363636363" style="fill: none; stroke: #d8d8d8; stroke-width: 1px; opacity: 1;"></line><line x1="0" y1="348.0633823679392" x2="515" y2="348.0633823679392" style="fill: none; stroke: #d8d8d8; stroke-width: 1px; opacity: 1;"></line><line x1="0" y1="272.76312837224214" x2="515" y2="272.76312837224214" style="fill: none; stroke: #d8d8d8; stroke-width: 1px; opacity: 1;"></line><line x1="0" y1="197.46287437654496" x2="515" y2="197.46287437654496" style="fill: none; stroke: #d8d8d8; stroke-width: 1px; opacity: 1;"></line><line x1="0" y1="122.16262038084786" x2="515" y2="122.16262038084786" style="fill: none; stroke: #d8d8d8; stroke-width: 1px; opacity: 1;"></line><line x1="0" y1="46.86236638515073" x2="515" y2="46.86236638515073" style="fill: none; stroke: #d8d8d8; stroke-width: 1px; opacity: 1;"></line></g><g id="g40" class="type-rule" style="pointer-events: none;"><line x1="-6" y1="423.3636363636363" x2="0" y2="423.3636363636363" style="fill: none; stroke: #000000; stroke-width: 1px; opacity: 1;"></line><line x1="-6" y1="348.0633823679392" x2="0" y2="348.0633823679392" style="fill: none; stroke: #000000; stroke-width: 1px; opacity: 1;"></line><line x1="-6" y1="272.76312837224214" x2="0" y2="272.76312837224214" style="fill: none; stroke: #000000; stroke-width: 1px; opacity: 1;"></line><line x1="-6" y1="197.46287437654496" x2="0" y2="197.46287437654496" style="fill: none; stroke: #000000; stroke-width: 1px; opacity: 1;"></line><line x1="-6" y1="122.16262038084786" x2="0" y2="122.16262038084786" style="fill: none; stroke: #000000; stroke-width: 1px; opacity: 1;"></line><line x1="-6" y1="46.86236638515073" x2="0" y2="46.86236638515073" style="fill: none; stroke: #000000; stroke-width: 1px; opacity: 1;"></line></g><g id="g41" class="type-rule" style="pointer-events: none;"></g><g id="g42" class="type-text"><text x="-9" y="423.3636363636363" text-anchor="end" dy=".35em" style="font-style: normal; font-variant: normal; font-weight: normal; font-size: 11px; line-height: normal; font-family: sans-serif; fill: #000000; opacity: 1;">0</text><text x="-9" y="348.0633823679392" text-anchor="end" dy=".35em" style="font-style: normal; font-variant: normal; font-weight: normal; font-size: 11px; line-height: normal; font-family: sans-serif; fill: #000000; opacity: 1;">50</text><text x="-9" y="272.76312837224214" text-anchor="end" dy=".35em" style="font-style: normal; font-variant: normal; font-weight: normal; font-size: 11px; line-height: normal; font-family: sans-serif; fill: #000000; opacity: 1;">100</text><text x="-9" y="197.46287437654496" text-anchor="end" dy=".35em" style="font-style: normal; font-variant: normal; font-weight: normal; font-size: 11px; line-height: normal; font-family: sans-serif; fill: #000000; opacity: 1;">150</text><text x="-9" y="122.16262038084786" text-anchor="end" dy=".35em" style="font-style: normal; font-variant: normal; font-weight: normal; font-size: 11px; line-height: normal; font-family: sans-serif; fill: #000000; opacity: 1;">200</text><text x="-9" y="46.86236638515073" text-anchor="end" dy=".35em" style="font-style: normal; font-variant: normal; font-weight: normal; font-size: 11px; line-height: normal; font-family: sans-serif; fill: #000000; opacity: 1;">250</text></g><g id="g43" class="type-path" style="pointer-events: none;"><path transform="translate(0.5,0.5)" d="M-6,0H0V443H-6" style="fill: none; stroke: #000000; stroke-width: 1px;"></path></g><g id="g44" class="type-text"><text x="-50" y="221" text-anchor="middle" transform="rotate(-90 -50,221)" dy=".35em" style="font-weight: bold; font-style: normal; font-variant: normal; font-size: 11px; line-height: normal; font-family: sans-serif; fill: #000000;">Aantal studenten in de bibs</text></g></g></g><g id="g45" class="type-group"><g transform="translate(0,443)"><rect class="background" width="0" height="0" style="pointer-events: none; fill: none;"></rect><g id="g46" class="type-rule" style="pointer-events: none;"><line x1="8.806451612903226" y1="-443" x2="8.806451612903226" y2="0" style="fill: none; stroke: #d8d8d8; stroke-width: 1px; opacity: 1;"></line><line x1="42.03225806451613" y1="-443" x2="42.03225806451613" y2="0" style="fill: none; stroke: #d8d8d8; stroke-width: 1px; opacity: 1;"></line><line x1="75.25806451612904" y1="-443" x2="75.25806451612904" y2="0" style="fill: none; stroke: #d8d8d8; stroke-width: 1px; opacity: 1;"></line><line x1="108.48387096774195" y1="-443" x2="108.48387096774195" y2="0" style="fill: none; stroke: #d8d8d8; stroke-width: 1px; opacity: 1;"></line><line x1="141.70967741935485" y1="-443" x2="141.70967741935485" y2="0" style="fill: none; stroke: #d8d8d8; stroke-width: 1px; opacity: 1;"></line><line x1="174.93548387096774" y1="-443" x2="174.93548387096774" y2="0" style="fill: none; stroke: #d8d8d8; stroke-width: 1px; opacity: 1;"></line><line x1="208.16129032258067" y1="-443" x2="208.16129032258067" y2="0" style="fill: none; stroke: #d8d8d8; stroke-width: 1px; opacity: 1;"></line><line x1="241.38709677419357" y1="-443" x2="241.38709677419357" y2="0" style="fill: none; stroke: #d8d8d8; stroke-width: 1px; opacity: 1;"></line><line x1="274.61290322580646" y1="-443" x2="274.61290322580646" y2="0" style="fill: none; stroke: #d8d8d8; stroke-width: 1px; opacity: 1;"></line><line x1="307.8387096774194" y1="-443" x2="307.8387096774194" y2="0" style="fill: none; stroke: #d8d8d8; stroke-width: 1px; opacity: 1;"></line><line x1="341.06451612903226" y1="-443" x2="341.06451612903226" y2="0" style="fill: none; stroke: #d8d8d8; stroke-width: 1px; opacity: 1;"></line><line x1="374.2903225806452" y1="-443" x2="374.2903225806452" y2="0" style="fill: none; stroke: #d8d8d8; stroke-width: 1px; opacity: 1;"></line><line x1="407.5161290322581" y1="-443" x2="407.5161290322581" y2="0" style="fill: none; stroke: #d8d8d8; stroke-width: 1px; opacity: 1;"></line><line x1="440.741935483871" y1="-443" x2="440.741935483871" y2="0" style="fill: none; stroke: #d8d8d8; stroke-width: 1px; opacity: 1;"></line><line x1="473.9677419354839" y1="-443" x2="473.9677419354839" y2="0" style="fill: none; stroke: #d8d8d8; stroke-width: 1px; opacity: 1;"></line><line x1="507.19354838709677" y1="-443" x2="507.19354838709677" y2="0" style="fill: none; stroke: #d8d8d8; stroke-width: 1px; opacity: 1;"></line></g><g id="g47" class="type-rule" style="pointer-events: none;"><line x1="8.806451612903226" y1="0" x2="8.806451612903226" y2="6" style="fill: none; stroke: #000000; stroke-width: 1px; opacity: 1;"></line><line x1="42.03225806451613" y1="0" x2="42.03225806451613" y2="6" style="fill: none; stroke: #000000; stroke-width: 1px; opacity: 1;"></line><line x1="75.25806451612904" y1="0" x2="75.25806451612904" y2="6" style="fill: none; stroke: #000000; stroke-width: 1px; opacity: 1;"></line><line x1="108.48387096774195" y1="0" x2="108.48387096774195" y2="6" style="fill: none; stroke: #000000; stroke-width: 1px; opacity: 1;"></line><line x1="141.70967741935485" y1="0" x2="141.70967741935485" y2="6" style="fill: none; stroke: #000000; stroke-width: 1px; opacity: 1;"></line><line x1="174.93548387096774" y1="0" x2="174.93548387096774" y2="6" style="fill: none; stroke: #000000; stroke-width: 1px; opacity: 1;"></line><line x1="208.16129032258067" y1="0" x2="208.16129032258067" y2="6" style="fill: none; stroke: #000000; stroke-width: 1px; opacity: 1;"></line><line x1="241.38709677419357" y1="0" x2="241.38709677419357" y2="6" style="fill: none; stroke: #000000; stroke-width: 1px; opacity: 1;"></line><line x1="274.61290322580646" y1="0" x2="274.61290322580646" y2="6" style="fill: none; stroke: #000000; stroke-width: 1px; opacity: 1;"></line><line x1="307.8387096774194" y1="0" x2="307.8387096774194" y2="6" style="fill: none; stroke: #000000; stroke-width: 1px; opacity: 1;"></line><line x1="341.06451612903226" y1="0" x2="341.06451612903226" y2="6" style="fill: none; stroke: #000000; stroke-width: 1px; opacity: 1;"></line><line x1="374.2903225806452" y1="0" x2="374.2903225806452" y2="6" style="fill: none; stroke: #000000; stroke-width: 1px; opacity: 1;"></line><line x1="407.5161290322581" y1="0" x2="407.5161290322581" y2="6" style="fill: none; stroke: #000000; stroke-width: 1px; opacity: 1;"></line><line x1="440.741935483871" y1="0" x2="440.741935483871" y2="6" style="fill: none; stroke: #000000; stroke-width: 1px; opacity: 1;"></line><line x1="473.9677419354839" y1="0" x2="473.9677419354839" y2="6" style="fill: none; stroke: #000000; stroke-width: 1px; opacity: 1;"></line><line x1="507.19354838709677" y1="0" x2="507.19354838709677" y2="6" style="fill: none; stroke: #000000; stroke-width: 1px; opacity: 1;"></line></g><g id="g48" class="type-rule" style="pointer-events: none;"></g><g id="g49" class="type-text"><text x="8.806451612903226" y="9" text-anchor="middle" dy=".9em" style="font-style: normal; font-variant: normal; font-weight: normal; font-size: 11px; line-height: normal; font-family: sans-serif; fill: #000000; opacity: 1;">08-09</text><text x="42.03225806451613" y="9" text-anchor="middle" dy=".9em" style="font-style: normal; font-variant: normal; font-weight: normal; font-size: 11px; line-height: normal; font-family: sans-serif; fill: #000000; opacity: 1;">09-10</text><text x="75.25806451612904" y="9" text-anchor="middle" dy=".9em" style="font-style: normal; font-variant: normal; font-weight: normal; font-size: 11px; line-height: normal; font-family: sans-serif; fill: #000000; opacity: 1;">10-11</text><text x="108.48387096774195" y="9" text-anchor="middle" dy=".9em" style="font-style: normal; font-variant: normal; font-weight: normal; font-size: 11px; line-height: normal; font-family: sans-serif; fill: #000000; opacity: 1;">11-12</text><text x="141.70967741935485" y="9" text-anchor="middle" dy=".9em" style="font-style: normal; font-variant: normal; font-weight: normal; font-size: 11px; line-height: normal; font-family: sans-serif; fill: #000000; opacity: 1;">12-13</text><text x="174.93548387096774" y="9" text-anchor="middle" dy=".9em" style="font-style: normal; font-variant: normal; font-weight: normal; font-size: 11px; line-height: normal; font-family: sans-serif; fill: #000000; opacity: 1;">13-14</text><text x="208.16129032258067" y="9" text-anchor="middle" dy=".9em" style="font-style: normal; font-variant: normal; font-weight: normal; font-size: 11px; line-height: normal; font-family: sans-serif; fill: #000000; opacity: 1;">14-15</text><text x="241.38709677419357" y="9" text-anchor="middle" dy=".9em" style="font-style: normal; font-variant: normal; font-weight: normal; font-size: 11px; line-height: normal; font-family: sans-serif; fill: #000000; opacity: 1;">15-16</text><text x="274.61290322580646" y="9" text-anchor="middle" dy=".9em" style="font-style: normal; font-variant: normal; font-weight: normal; font-size: 11px; line-height: normal; font-family: sans-serif; fill: #000000; opacity: 1;">16-17</text><text x="307.8387096774194" y="9" text-anchor="middle" dy=".9em" style="font-style: normal; font-variant: normal; font-weight: normal; font-size: 11px; line-height: normal; font-family: sans-serif; fill: #000000; opacity: 1;">17-18</text><text x="341.06451612903226" y="9" text-anchor="middle" dy=".9em" style="font-style: normal; font-variant: normal; font-weight: normal; font-size: 11px; line-height: normal; font-family: sans-serif; fill: #000000; opacity: 1;">18-19</text><text x="374.2903225806452" y="9" text-anchor="middle" dy=".9em" style="font-style: normal; font-variant: normal; font-weight: normal; font-size: 11px; line-height: normal; font-family: sans-serif; fill: #000000; opacity: 1;">19-20</text><text x="407.5161290322581" y="9" text-anchor="middle" dy=".9em" style="font-style: normal; font-variant: normal; font-weight: normal; font-size: 11px; line-height: normal; font-family: sans-serif; fill: #000000; opacity: 1;">20-21</text><text x="440.741935483871" y="9" text-anchor="middle" dy=".9em" style="font-style: normal; font-variant: normal; font-weight: normal; font-size: 11px; line-height: normal; font-family: sans-serif; fill: #000000; opacity: 1;">21-22</text><text x="473.9677419354839" y="9" text-anchor="middle" dy=".9em" style="font-style: normal; font-variant: normal; font-weight: normal; font-size: 11px; line-height: normal; font-family: sans-serif; fill: #000000; opacity: 1;">22-23</text><text x="507.19354838709677" y="9" text-anchor="middle" dy=".9em" style="font-style: normal; font-variant: normal; font-weight: normal; font-size: 11px; line-height: normal; font-family: sans-serif; fill: #000000; opacity: 1;">23-24</text></g><g id="g50" class="type-path" style="pointer-events: none;"><path transform="translate(0.5,0.5)" d="M0,6V0H515V6" style="fill: none; stroke: #000000; stroke-width: 1px;"></path></g><g id="g51" class="type-text"><text x="257" y="50" text-anchor="middle" dy=".35em" style="font-weight: bold; font-style: normal; font-variant: normal; font-size: 11px; line-height: normal; font-family: sans-serif; fill: #000000;">Uur van de dag</text></g></g></g><g id="g52" class="type-group"><g transform="translate(0,0)"><rect class="background" width="0" height="0" style="pointer-events: none; fill: none;"></rect><g id="g53" class="type-rule" style="pointer-events: none;"><line x1="8.806451612903226" y1="0" x2="8.806451612903226" y2="443" style="fill: none; stroke: #d8d8d8; stroke-width: 1px; opacity: 1;"></line><line x1="42.03225806451613" y1="0" x2="42.03225806451613" y2="443" style="fill: none; stroke: #d8d8d8; stroke-width: 1px; opacity: 1;"></line><line x1="75.25806451612904" y1="0" x2="75.25806451612904" y2="443" style="fill: none; stroke: #d8d8d8; stroke-width: 1px; opacity: 1;"></line><line x1="108.48387096774195" y1="0" x2="108.48387096774195" y2="443" style="fill: none; stroke: #d8d8d8; stroke-width: 1px; opacity: 1;"></line><line x1="141.70967741935485" y1="0" x2="141.70967741935485" y2="443" style="fill: none; stroke: #d8d8d8; stroke-width: 1px; opacity: 1;"></line><line x1="174.93548387096774" y1="0" x2="174.93548387096774" y2="443" style="fill: none; stroke: #d8d8d8; stroke-width: 1px; opacity: 1;"></line><line x1="208.16129032258067" y1="0" x2="208.16129032258067" y2="443" style="fill: none; stroke: #d8d8d8; stroke-width: 1px; opacity: 1;"></line><line x1="241.38709677419357" y1="0" x2="241.38709677419357" y2="443" style="fill: none; stroke: #d8d8d8; stroke-width: 1px; opacity: 1;"></line><line x1="274.61290322580646" y1="0" x2="274.61290322580646" y2="443" style="fill: none; stroke: #d8d8d8; stroke-width: 1px; opacity: 1;"></line><line x1="307.8387096774194" y1="0" x2="307.8387096774194" y2="443" style="fill: none; stroke: #d8d8d8; stroke-width: 1px; opacity: 1;"></line><line x1="341.06451612903226" y1="0" x2="341.06451612903226" y2="443" style="fill: none; stroke: #d8d8d8; stroke-width: 1px; opacity: 1;"></line><line x1="374.2903225806452" y1="0" x2="374.2903225806452" y2="443" style="fill: none; stroke: #d8d8d8; stroke-width: 1px; opacity: 1;"></line><line x1="407.5161290322581" y1="0" x2="407.5161290322581" y2="443" style="fill: none; stroke: #d8d8d8; stroke-width: 1px; opacity: 1;"></line><line x1="440.741935483871" y1="0" x2="440.741935483871" y2="443" style="fill: none; stroke: #d8d8d8; stroke-width: 1px; opacity: 1;"></line><line x1="473.9677419354839" y1="0" x2="473.9677419354839" y2="443" style="fill: none; stroke: #d8d8d8; stroke-width: 1px; opacity: 1;"></line><line x1="507.19354838709677" y1="0" x2="507.19354838709677" y2="443" style="fill: none; stroke: #d8d8d8; stroke-width: 1px; opacity: 1;"></line></g><g id="g54" class="type-rule" style="pointer-events: none;"><line x1="8.806451612903226" y1="-6" x2="8.806451612903226" y2="0" style="fill: none; stroke: #000000; stroke-width: 0px; opacity: 1;"></line><line x1="42.03225806451613" y1="-6" x2="42.03225806451613" y2="0" style="fill: none; stroke: #000000; stroke-width: 0px; opacity: 1;"></line><line x1="75.25806451612904" y1="-6" x2="75.25806451612904" y2="0" style="fill: none; stroke: #000000; stroke-width: 0px; opacity: 1;"></line><line x1="108.48387096774195" y1="-6" x2="108.48387096774195" y2="0" style="fill: none; stroke: #000000; stroke-width: 0px; opacity: 1;"></line><line x1="141.70967741935485" y1="-6" x2="141.70967741935485" y2="0" style="fill: none; stroke: #000000; stroke-width: 0px; opacity: 1;"></line><line x1="174.93548387096774" y1="-6" x2="174.93548387096774" y2="0" style="fill: none; stroke: #000000; stroke-width: 0px; opacity: 1;"></line><line x1="208.16129032258067" y1="-6" x2="208.16129032258067" y2="0" style="fill: none; stroke: #000000; stroke-width: 0px; opacity: 1;"></line><line x1="241.38709677419357" y1="-6" x2="241.38709677419357" y2="0" style="fill: none; stroke: #000000; stroke-width: 0px; opacity: 1;"></line><line x1="274.61290322580646" y1="-6" x2="274.61290322580646" y2="0" style="fill: none; stroke: #000000; stroke-width: 0px; opacity: 1;"></line><line x1="307.8387096774194" y1="-6" x2="307.8387096774194" y2="0" style="fill: none; stroke: #000000; stroke-width: 0px; opacity: 1;"></line><line x1="341.06451612903226" y1="-6" x2="341.06451612903226" y2="0" style="fill: none; stroke: #000000; stroke-width: 0px; opacity: 1;"></line><line x1="374.2903225806452" y1="-6" x2="374.2903225806452" y2="0" style="fill: none; stroke: #000000; stroke-width: 0px; opacity: 1;"></line><line x1="407.5161290322581" y1="-6" x2="407.5161290322581" y2="0" style="fill: none; stroke: #000000; stroke-width: 0px; opacity: 1;"></line><line x1="440.741935483871" y1="-6" x2="440.741935483871" y2="0" style="fill: none; stroke: #000000; stroke-width: 0px; opacity: 1;"></line><line x1="473.9677419354839" y1="-6" x2="473.9677419354839" y2="0" style="fill: none; stroke: #000000; stroke-width: 0px; opacity: 1;"></line><line x1="507.19354838709677" y1="-6" x2="507.19354838709677" y2="0" style="fill: none; stroke: #000000; stroke-width: 0px; opacity: 1;"></line></g><g id="g55" class="type-rule" style="pointer-events: none;"></g><g id="g56" class="type-text"><text x="8.806451612903226" y="-9" text-anchor="middle" style="font-style: normal; font-variant: normal; font-weight: normal; font-size: 0px; line-height: normal; font-family: sans-serif; fill: #000000; opacity: 1;">08-09</text><text x="42.03225806451613" y="-9" text-anchor="middle" style="font-style: normal; font-variant: normal; font-weight: normal; font-size: 0px; line-height: normal; font-family: sans-serif; fill: #000000; opacity: 1;">09-10</text><text x="75.25806451612904" y="-9" text-anchor="middle" style="font-style: normal; font-variant: normal; font-weight: normal; font-size: 0px; line-height: normal; font-family: sans-serif; fill: #000000; opacity: 1;">10-11</text><text x="108.48387096774195" y="-9" text-anchor="middle" style="font-style: normal; font-variant: normal; font-weight: normal; font-size: 0px; line-height: normal; font-family: sans-serif; fill: #000000; opacity: 1;">11-12</text><text x="141.70967741935485" y="-9" text-anchor="middle" style="font-style: normal; font-variant: normal; font-weight: normal; font-size: 0px; line-height: normal; font-family: sans-serif; fill: #000000; opacity: 1;">12-13</text><text x="174.93548387096774" y="-9" text-anchor="middle" style="font-style: normal; font-variant: normal; font-weight: normal; font-size: 0px; line-height: normal; font-family: sans-serif; fill: #000000; opacity: 1;">13-14</text><text x="208.16129032258067" y="-9" text-anchor="middle" style="font-style: normal; font-variant: normal; font-weight: normal; font-size: 0px; line-height: normal; font-family: sans-serif; fill: #000000; opacity: 1;">14-15</text><text x="241.38709677419357" y="-9" text-anchor="middle" style="font-style: normal; font-variant: normal; font-weight: normal; font-size: 0px; line-height: normal; font-family: sans-serif; fill: #000000; opacity: 1;">15-16</text><text x="274.61290322580646" y="-9" text-anchor="middle" style="font-style: normal; font-variant: normal; font-weight: normal; font-size: 0px; line-height: normal; font-family: sans-serif; fill: #000000; opacity: 1;">16-17</text><text x="307.8387096774194" y="-9" text-anchor="middle" style="font-style: normal; font-variant: normal; font-weight: normal; font-size: 0px; line-height: normal; font-family: sans-serif; fill: #000000; opacity: 1;">17-18</text><text x="341.06451612903226" y="-9" text-anchor="middle" style="font-style: normal; font-variant: normal; font-weight: normal; font-size: 0px; line-height: normal; font-family: sans-serif; fill: #000000; opacity: 1;">18-19</text><text x="374.2903225806452" y="-9" text-anchor="middle" style="font-style: normal; font-variant: normal; font-weight: normal; font-size: 0px; line-height: normal; font-family: sans-serif; fill: #000000; opacity: 1;">19-20</text><text x="407.5161290322581" y="-9" text-anchor="middle" style="font-style: normal; font-variant: normal; font-weight: normal; font-size: 0px; line-height: normal; font-family: sans-serif; fill: #000000; opacity: 1;">20-21</text><text x="440.741935483871" y="-9" text-anchor="middle" style="font-style: normal; font-variant: normal; font-weight: normal; font-size: 0px; line-height: normal; font-family: sans-serif; fill: #000000; opacity: 1;">21-22</text><text x="473.9677419354839" y="-9" text-anchor="middle" style="font-style: normal; font-variant: normal; font-weight: normal; font-size: 0px; line-height: normal; font-family: sans-serif; fill: #000000; opacity: 1;">22-23</text><text x="507.19354838709677" y="-9" text-anchor="middle" style="font-style: normal; font-variant: normal; font-weight: normal; font-size: 0px; line-height: normal; font-family: sans-serif; fill: #000000; opacity: 1;">23-24</text></g><g id="g57" class="type-path" style="pointer-events: none;"><path transform="translate(0.5,0.5)" d="M0,-6V0H515V-6" style="fill: none; stroke: #ffffff; stroke-width: 1px;"></path></g><g id="g58" class="type-text"><text x="257" y="-35" text-anchor="middle" dy=".35em" style="font-weight: bold; font-style: normal; font-variant: normal; font-size: 11px; line-height: normal; font-family: sans-serif; fill: #000000;">Procentuele bezetting per uur van de week tijdens een week onder het jaar</text></g></g></g><g id="g59" class="type-group"><g transform="translate(0,0)"><rect class="background" width="0" height="0" style="fill: none;"></rect><g id="g60" class="type-line"><path d="M8.306451612903226,362.62343316707864L41.53225806451613,362.62343316707864L74.75806451612904,357.20181487938845L107.98387096774195,355.2898432127151L141.20967741935485,362.62343316707864L174.43548387096774,362.62343316707864L207.66129032258067,362.62343316707864L240.88709677419357,362.62343316707864L274.11290322580646,362.04971694615904L307.3387096774194,362.62343316707864L340.56451612903226,362.62343316707864L373.7903225806452,362.62343316707864L407.0161290322581,362.62343316707864" style="fill: none; stroke: #1f77b4; stroke-width: 2px;"></path></g></g><g transform="translate(0,0)"><rect class="background" width="0" height="0" style="fill: none;"></rect><g id="g61" class="type-line"><path d="M41.53225806451613,393.18027623853254L74.75806451612904,355.81629020586763L107.98387096774195,325.27123326112604L141.20967741935485,341.65984245467655L174.43548387096774,327.2925539922976L207.66129032258067,274.085394518938L240.88709677419357,275.3956189384631L274.11290322580646,307.6341676824876L307.3387096774194,339.40083483480566L340.56451612903226,379.0709167004736L373.7903225806452,396.5212999275126" style="fill: none; stroke: #ff7f0e; stroke-width: 2px;"></path></g></g><g transform="translate(0,0)"><rect class="background" width="0" height="0" style="fill: none;"></rect><g id="g62" class="type-line"><path d="M41.53225806451613,362.08127133830965L74.75806451612904,302.5187704277132L107.98387096774195,233.73886364322567L141.20967741935485,268.66377623124777L174.43548387096774,272.8805904550069L207.66129032258067,207.11334861516497L240.88709677419357,216.1794991962469L274.11290322580646,215.83353987802946L307.3387096774194,242.40657766294822L340.56451612903226,342.7760239119819L373.7903225806452,363.831880791687L407.0161290322581,374.76559912388484L440.241935483871,396.88504873512085" style="fill: none; stroke: #2ca02c; stroke-width: 2px;"></path></g></g><g transform="translate(0,0)"><rect class="background" width="0" height="0" style="fill: none;"></rect><g id="g63" class="type-line"><path d="M8.306451612903226,403.6771316455327L41.53225806451613,379.80444112043017L74.75806451612904,311.9965623973049L107.98387096774195,250.25799327703513L141.20967741935485,294.12234916452235L174.43548387096774,253.7995060924972L207.66129032258067,193.3785822863498L240.88709677419357,211.55606360091107L274.11290322580646,246.12748592824943L307.3387096774194,291.9767348683156L340.56451612903226,339.6930577435813L373.7903225806452,362.36899117978675L407.0161290322581,370.3040590746397L440.241935483871,386.58663164453293" style="fill: none; stroke: #d62728; stroke-width: 2px;"></path></g></g><g transform="translate(0,0)"><rect class="background" width="0" height="0" style="fill: none;"></rect><g id="g64" class="type-line"><path d="M41.53225806451613,408.3758674948642L74.75806451612904,395.604944417194L107.98387096774195,382.90801202388474L141.20967741935485,388.4664803384019L174.43548387096774,390.31886658669606L207.66129032258067,383.0900422031092L240.88709677419357,380.4695933640589L274.11290322580646,378.40923498568145L307.3387096774194,386.855054902894L340.56451612903226,401.52947299853867L373.7903225806452,401.25185620675836L407.0161290322581,401.00773764138523L440.241935483871,406.8291116892585" style="fill: none; stroke: #9467bd; stroke-width: 2px;"></path></g></g><g transform="translate(0,0)"><rect class="background" width="0" height="0" style="fill: none;"></rect><g id="g65" class="type-line"><path d="M41.53225806451613,362.44271255748896L74.75806451612904,303.22408280680617L107.98387096774195,237.08917929202062L141.20967741935485,280.0818047454621L174.43548387096774,263.01374717310347L207.66129032258067,181.85381865020153L240.88709677419357,196.54872297956868L274.11290322580646,230.7702979363596L307.3387096774194,287.1656064176499L340.56451612903226,342.61673491314497L373.7903225806452,360.93039197240125L407.0161290322581,366.6781303734117L440.241935483871,374.93502469537515L473.4677419354839,399.5427047584983" style="fill: none; stroke: #8c564b; stroke-width: 2px;"></path></g></g><g transform="translate(0,0)"><rect class="background" width="0" height="0" style="fill: none;"></rect><g id="g66" class="type-line"><path d="M8.306451612903226,391.35801009183666L41.53225806451613,319.8528888975227L74.75806451612904,202.59963624707984L107.98387096774195,73.92272705101651L141.20967741935485,111.38951430000566L174.43548387096774,81.62439961342193L207.66129032258067,33.41789415065244L240.88709677419357,20.136363636363225L274.11290322580646,21.39495359600664L307.3387096774194,105.3439796220665L340.56451612903226,204.7360855780904L373.7903225806452,166.29332382814337L407.0161290322581,144.87015866232176L440.241935483871,174.05653711105393L473.4677419354839,257.4440383858889L506.69354838709677,339.0588830931311" style="fill: none; stroke: #e377c2; stroke-width: 2px;"></path></g></g><g transform="translate(0,0)"><rect class="background" width="0" height="0" style="fill: none;"></rect><g id="g67" class="type-line"><path d="M8.306451612903226,417.364207813484L41.53225806451613,395.604944417194L74.75806451612904,358.8885405688921L107.98387096774195,339.14677832567236L141.20967741935485,361.55416956033974L174.43548387096774,351.2982749661258L207.66129032258067,331.40394786046267L240.88709677419357,341.90080326746283L274.11290322580646,349.55632909035864L307.3387096774194,371.087181716195L340.56451612903226,394.7983117415858L373.7903225806452,398.4876081729809L407.0161290322581,399.61468294246487L440.241935483871,408.5122938373976" style="fill: none; stroke: #7f7f7f; stroke-width: 2px;"></path></g></g><g transform="translate(0,0)"><rect class="background" width="0" height="0" style="fill: none;"></rect><g id="g68" class="type-line"><path d="M8.306451612903226,411.89991938186284L41.53225806451613,396.4332472111467L74.75806451612904,365.33424231092374L107.98387096774195,331.73395940840896L141.20967741935485,344.2351111413294L174.43548387096774,338.7231325488444L207.66129032258067,321.17817336784697L240.88709677419357,310.78673831644073L274.11290322580646,328.2148028174259L307.3387096774194,357.4126555905764L340.56451612903226,385.44343068432306L373.7903225806452,390.2057947536799L407.0161290322581,394.117764400779L440.241935483871,404.21574993293723" style="fill: none; stroke: #bcbd22; stroke-width: 2px;"></path></g></g></g><g id="g69" class="type-group"><g transform="translate(528.2247983870968,0.5)"><rect class="background" width="207" height="151" style="pointer-events: none; fill: none;"></rect><g id="g70" class="type-text" style="pointer-events: none;"><text x="3" y="3" text-anchor="start" dy=".9em" style="font-weight: bold; font-style: normal; font-variant: normal; font-size: 11px; line-height: normal; font-family: sans-serif; fill: #000000; opacity: 1;">name</text></g><g id="g71" class="type-symbol" style="pointer-events: none;"><path transform="translate(7.5,23)" d="M0,3.989422804014327A3.989422804014327,3.989422804014327 0 1,1 0,-3.989422804014327A3.989422804014327,3.989422804014327 0 1,1 0,3.989422804014327Z" style="fill: none; stroke: #1f77b4; stroke-width: 1px; opacity: 1;"></path><path transform="translate(7.5,38)" d="M0,3.989422804014327A3.989422804014327,3.989422804014327 0 1,1 0,-3.989422804014327A3.989422804014327,3.989422804014327 0 1,1 0,3.989422804014327Z" style="fill: none; stroke: #ff7f0e; stroke-width: 1px; opacity: 1;"></path><path transform="translate(7.5,53)" d="M0,3.989422804014327A3.989422804014327,3.989422804014327 0 1,1 0,-3.989422804014327A3.989422804014327,3.989422804014327 0 1,1 0,3.989422804014327Z" style="fill: none; stroke: #2ca02c; stroke-width: 1px; opacity: 1;"></path><path transform="translate(7.5,68)" d="M0,3.989422804014327A3.989422804014327,3.989422804014327 0 1,1 0,-3.989422804014327A3.989422804014327,3.989422804014327 0 1,1 0,3.989422804014327Z" style="fill: none; stroke: #d62728; stroke-width: 1px; opacity: 1;"></path><path transform="translate(7.5,83)" d="M0,3.989422804014327A3.989422804014327,3.989422804014327 0 1,1 0,-3.989422804014327A3.989422804014327,3.989422804014327 0 1,1 0,3.989422804014327Z" style="fill: none; stroke: #9467bd; stroke-width: 1px; opacity: 1;"></path><path transform="translate(7.5,98)" d="M0,3.989422804014327A3.989422804014327,3.989422804014327 0 1,1 0,-3.989422804014327A3.989422804014327,3.989422804014327 0 1,1 0,3.989422804014327Z" style="fill: none; stroke: #8c564b; stroke-width: 1px; opacity: 1;"></path><path transform="translate(7.5,113)" d="M0,3.989422804014327A3.989422804014327,3.989422804014327 0 1,1 0,-3.989422804014327A3.989422804014327,3.989422804014327 0 1,1 0,3.989422804014327Z" style="fill: none; stroke: #e377c2; stroke-width: 1px; opacity: 1;"></path><path transform="translate(7.5,128)" d="M0,3.989422804014327A3.989422804014327,3.989422804014327 0 1,1 0,-3.989422804014327A3.989422804014327,3.989422804014327 0 1,1 0,3.989422804014327Z" style="fill: none; stroke: #7f7f7f; stroke-width: 1px; opacity: 1;"></path><path transform="translate(7.5,143)" d="M0,3.989422804014327A3.989422804014327,3.989422804014327 0 1,1 0,-3.989422804014327A3.989422804014327,3.989422804014327 0 1,1 0,3.989422804014327Z" style="fill: none; stroke: #bcbd22; stroke-width: 1px; opacity: 1;"></path></g><g id="g72" class="type-text" style="pointer-events: none;"><text x="16" y="23" text-anchor="start" dy=".35em" style="font-style: normal; font-variant: normal; font-weight: normal; font-size: 10px; line-height: normal; font-family: sans-serif; fill: #000000; opacity: 1;">2Bergen - Biomedische Bibliotheek</text><text x="16" y="38" text-anchor="start" dy=".35em" style="font-style: normal; font-variant: normal; font-weight: normal; font-size: 10px; line-height: normal; font-family: sans-serif; fill: #000000; opacity: 1;">Arts</text><text x="16" y="53" text-anchor="start" dy=".35em" style="font-style: normal; font-variant: normal; font-weight: normal; font-size: 10px; line-height: normal; font-family: sans-serif; fill: #000000; opacity: 1;">Business and Economics</text><text x="16" y="68" text-anchor="start" dy=".35em" style="font-style: normal; font-variant: normal; font-weight: normal; font-size: 10px; line-height: normal; font-family: sans-serif; fill: #000000; opacity: 1;">Campuslibrary Arenberg</text><text x="16" y="83" text-anchor="start" dy=".35em" style="font-style: normal; font-variant: normal; font-weight: normal; font-size: 10px; line-height: normal; font-family: sans-serif; fill: #000000; opacity: 1;">Institute of Philosophy</text><text x="16" y="98" text-anchor="start" dy=".35em" style="font-style: normal; font-variant: normal; font-weight: normal; font-size: 10px; line-height: normal; font-family: sans-serif; fill: #000000; opacity: 1;">Law</text><text x="16" y="113" text-anchor="start" dy=".35em" style="font-style: normal; font-variant: normal; font-weight: normal; font-size: 10px; line-height: normal; font-family: sans-serif; fill: #000000; opacity: 1;">Learning Centre AGORA</text><text x="16" y="128" text-anchor="start" dy=".35em" style="font-style: normal; font-variant: normal; font-weight: normal; font-size: 10px; line-height: normal; font-family: sans-serif; fill: #000000; opacity: 1;">Psychology and Educational Sciences</text><text x="16" y="143" text-anchor="start" dy=".35em" style="font-style: normal; font-variant: normal; font-weight: normal; font-size: 10px; line-height: normal; font-family: sans-serif; fill: #000000; opacity: 1;">Social Sciences</text></g></g></g></g></g></g></svg>