<svg class="marks" width="800" height="552" xmlns="http://www.w3.org/2000/svg"><g transform="translate(61,46)"><g id="g38" class="type-group"><g transform="translate(0,0)"><rect class="background" width="515" height="443" style="pointer-events: none; fill: none;"></rect><g id="g39" class="type-group"><g transform="translate(0,0)"><rect class="background" width="0" height="0" style="pointer-events: none; fill: none;"></rect><g id="g40" class="type-rule" style="pointer-events: none;"><line x1="0" y1="423.3636363636363" x2="515" y2="423.3636363636363" style="fill: none; stroke: #d8d8d8; stroke-width: 1px; opacity: 1;"></line><line x1="0" y1="365.9709438174538" x2="515" y2="365.9709438174538" style="fill: none; stroke: #d8d8d8; stroke-width: 1px; opacity: 1;"></line><line x1="0" y1="308.5782512712712" x2="515" y2="308.5782512712712" style="fill: none; stroke: #d8d8d8; stroke-width: 1px; opacity: 1;"></line><line x1="0" y1="251.1855587250887" x2="515" y2="251.1855587250887" style="fill: none; stroke: #d8d8d8; stroke-width: 1px; opacity: 1;"></line><line x1="0" y1="193.7928661789061" x2="515" y2="193.7928661789061" style="fill: none; stroke: #d8d8d8; stroke-width: 1px; opacity: 1;"></line><line x1="0" y1="136.40017363272355" x2="515" y2="136.40017363272355" style="fill: none; stroke: #d8d8d8; stroke-width: 1px; opacity: 1;"></line><line x1="0" y1="79.00748108654102" x2="515" y2="79.00748108654102" style="fill: none; stroke: #d8d8d8; stroke-width: 1px; opacity: 1;"></line><line x1="0" y1="21.61478854035844" x2="515" y2="21.61478854035844" style="fill: none; stroke: #d8d8d8; stroke-width: 1px; opacity: 1;"></line></g><g id="g41" class="type-rule" style="pointer-events: none;"><line x1="-6" y1="423.3636363636363" x2="0" y2="423.3636363636363" style="fill: none; stroke: #000000; stroke-width: 1px; opacity: 1;"></line><line x1="-6" y1="365.9709438174538" x2="0" y2="365.9709438174538" style="fill: none; stroke: #000000; stroke-width: 1px; opacity: 1;"></line><line x1="-6" y1="308.5782512712712" x2="0" y2="308.5782512712712" style="fill: none; stroke: #000000; stroke-width: 1px; opacity: 1;"></line><line x1="-6" y1="251.1855587250887" x2="0" y2="251.1855587250887" style="fill: none; stroke: #000000; stroke-width: 1px; opacity: 1;"></line><line x1="-6" y1="193.7928661789061" x2="0" y2="193.7928661789061" style="fill: none; stroke: #000000; stroke-width: 1px; opacity: 1;"></line><line x1="-6" y1="136.40017363272355" x2="0" y2="136.40017363272355" style="fill: none; stroke: #000000; stroke-width: 1px; opacity: 1;"></line><line x1="-6" y1="79.00748108654102" x2="0" y2="79.00748108654102" style="fill: none; stroke: #000000; stroke-width: 1px; opacity: 1;"></line><line x1="-6" y1="21.61478854035844" x2="0" y2="21.61478854035844" style="fill: none; stroke: #000000; stroke-width: 1px; opacity: 1;"></line></g><g id="g42" class="type-rule" style="pointer-events: none;"></g><g id="g43" class="type-text"><text x="-9" y="423.3636363636363" text-anchor="end" dy=".35em" style="font-style: normal; font-variant: normal; font-weight: normal; font-size: 11px; line-height: normal; font-family: sans-serif; fill: #000000; opacity: 1;">0</text><text x="-9" y="365.9709438174538" text-anchor="end" dy=".35em" style="font-style: normal; font-variant: normal; font-weight: normal; font-size: 11px; line-height: normal; font-family: sans-serif; fill: #000000; opacity: 1;">50</text><text x="-9" y="308.5782512712712" text-anchor="end" dy=".35em" style="font-style: normal; font-variant: normal; font-weight: normal; font-size: 11px; line-height: normal; font-family: sans-serif; fill: #000000; opacity: 1;">100</text><text x="-9" y="251.1855587250887" text-anchor="end" dy=".35em" style="font-style: normal; font-variant: normal; font-weight: normal; font-size: 11px; line-height: normal; font-family: sans-serif; fill: #000000; opacity: 1;">150</text><text x="-9" y="193.7928661789061" text-anchor="end" dy=".35em" style="font-style: normal; font-variant: normal; font-weight: normal; font-size: 11px; line-height: normal; font-family: sans-serif; fill: #000000; opacity: 1;">200</text><text x="-9" y="136.40017363272355" text-anchor="end" dy=".35em" style="font-style: normal; font-variant: normal; font-weight: normal; font-size: 11px; line-height: normal; font-family: sans-serif; fill: #000000; opacity: 1;">250</text><text x="-9" y="79.00748108654102" text-anchor="end" dy=".35em" style="font-style: normal; font-variant: normal; font-weight: normal; font-size: 11px; line-height: normal; font-family: sans-serif; fill: #000000; opacity: 1;">300</text><text x="-9" y="21.61478854035844" text-anchor="end" dy=".35em" style="font-style: normal; font-variant: normal; font-weight: normal; font-size: 11px; line-height: normal; font-family: sans-serif; fill: #000000; opacity: 1;">350</text></g><g id="g44" class="type-path" style="pointer-events: none;"><path transform="translate(0.5,0.5)" d="M-6,0H0V443H-6" style="fill: none; stroke: #000000; stroke-width: 1px;"></path></g><g id="g45" class="type-text"><text x="-50" y="221" text-anchor="middle" transform="rotate(-90 -50,221)" dy=".35em" style="font-weight: bold; font-style: normal; font-variant: normal; font-size: 11px; line-height: normal; font-family: sans-serif; fill: #000000;">Aantal studenten in de bibs</text></g></g></g><g id="g46" class="type-group"><g transform="translate(0,443)"><rect class="background" width="0" height="0" style="pointer-events: none; fill: none;"></rect><g id="g47" class="type-rule" style="pointer-events: none;"><line x1="8.806451612903226" y1="-443" x2="8.806451612903226" y2="0" style="fill: none; stroke: #d8d8d8; stroke-width: 1px; opacity: 1;"></line><line x1="42.03225806451613" y1="-443" x2="42.03225806451613" y2="0" style="fill: none; stroke: #d8d8d8; stroke-width: 1px; opacity: 1;"></line><line x1="75.25806451612904" y1="-443" x2="75.25806451612904" y2="0" style="fill: none; stroke: #d8d8d8; stroke-width: 1px; opacity: 1;"></line><line x1="108.48387096774195" y1="-443" x2="108.48387096774195" y2="0" style="fill: none; stroke: #d8d8d8; stroke-width: 1px; opacity: 1;"></line><line x1="141.70967741935485" y1="-443" x2="141.70967741935485" y2="0" style="fill: none; stroke: #d8d8d8; stroke-width: 1px; opacity: 1;"></line><line x1="174.93548387096774" y1="-443" x2="174.93548387096774" y2="0" style="fill: none; stroke: #d8d8d8; stroke-width: 1px; opacity: 1;"></line><line x1="208.16129032258067" y1="-443" x2="208.16129032258067" y2="0" style="fill: none; stroke: #d8d8d8; stroke-width: 1px; opacity: 1;"></line><line x1="241.38709677419357" y1="-443" x2="241.38709677419357" y2="0" style="fill: none; stroke: #d8d8d8; stroke-width: 1px; opacity: 1;"></line><line x1="274.61290322580646" y1="-443" x2="274.61290322580646" y2="0" style="fill: none; stroke: #d8d8d8; stroke-width: 1px; opacity: 1;"></line><line x1="307.8387096774194" y1="-443" x2="307.8387096774194" y2="0" style="fill: none; stroke: #d8d8d8; stroke-width: 1px; opacity: 1;"></line><line x1="341.06451612903226" y1="-443" x2="341.06451612903226" y2="0" style="fill: none; stroke: #d8d8d8; stroke-width: 1px; opacity: 1;"></line><line x1="374.2903225806452" y1="-443" x2="374.2903225806452" y2="0" style="fill: none; stroke: #d8d8d8; stroke-width: 1px; opacity: 1;"></line><line x1="407.5161290322581" y1="-443" x2="407.5161290322581" y2="0" style="fill: none; stroke: #d8d8d8; stroke-width: 1px; opacity: 1;"></line><line x1="440.741935483871" y1="-443" x2="440.741935483871" y2="0" style="fill: none; stroke: #d8d8d8; stroke-width: 1px; opacity: 1;"></line><line x1="473.9677419354839" y1="-443" x2="473.9677419354839" y2="0" style="fill: none; stroke: #d8d8d8; stroke-width: 1px; opacity: 1;"></line><line x1="507.19354838709677" y1="-443" x2="507.19354838709677" y2="0" style="fill: none; stroke: #d8d8d8; stroke-width: 1px; opacity: 1;"></line></g><g id="g48" class="type-rule" style="pointer-events: none;"><line x1="8.806451612903226" y1="0" x2="8.806451612903226" y2="6" style="fill: none; stroke: #000000; stroke-width: 1px; opacity: 1;"></line><line x1="42.03225806451613" y1="0" x2="42.03225806451613" y2="6" style="fill: none; stroke: #000000; stroke-width: 1px; opacity: 1;"></line><line x1="75.25806451612904" y1="0" x2="75.25806451612904" y2="6" style="fill: none; stroke: #000000; stroke-width: 1px; opacity: 1;"></line><line x1="108.48387096774195" y1="0" x2="108.48387096774195" y2="6" style="fill: none; stroke: #000000; stroke-width: 1px; opacity: 1;"></line><line x1="141.70967741935485" y1="0" x2="141.70967741935485" y2="6" style="fill: none; stroke: #000000; stroke-width: 1px; opacity: 1;"></line><line x1="174.93548387096774" y1="0" x2="174.93548387096774" y2="6" style="fill: none; stroke: #000000; stroke-width: 1px; opacity: 1;"></line><line x1="208.16129032258067" y1="0" x2="208.16129032258067" y2="6" style="fill: none; stroke: #000000; stroke-width: 1px; opacity: 1;"></line><line x1="241.38709677419357" y1="0" x2="241.38709677419357" y2="6" style="fill: none; stroke: #000000; stroke-width: 1px; opacity: 1;"></line><line x1="274.61290322580646" y1="0" x2="274.61290322580646" y2="6" style="fill: none; stroke: #000000; stroke-width: 1px; opacity: 1;"></line><line x1="307.8387096774194" y1="0" x2="307.8387096774194" y2="6" style="fill: none; stroke: #000000; stroke-width: 1px; opacity: 1;"></line><line x1="341.06451612903226" y1="0" x2="341.06451612903226" y2="6" style="fill: none; stroke: #000000; stroke-width: 1px; opacity: 1;"></line><line x1="374.2903225806452" y1="0" x2="374.2903225806452" y2="6" style="fill: none; stroke: #000000; stroke-width: 1px; opacity: 1;"></line><line x1="407.5161290322581" y1="0" x2="407.5161290322581" y2="6" style="fill: none; stroke: #000000; stroke-width: 1px; opacity: 1;"></line><line x1="440.741935483871" y1="0" x2="440.741935483871" y2="6" style="fill: none; stroke: #000000; stroke-width: 1px; opacity: 1;"></line><line x1="473.9677419354839" y1="0" x2="473.9677419354839" y2="6" style="fill: none; stroke: #000000; stroke-width: 1px; opacity: 1;"></line><line x1="507.19354838709677" y1="0" x2="507.19354838709677" y2="6" style="fill: none; stroke: #000000; stroke-width: 1px; opacity: 1;"></line></g><g id="g49" class="type-rule" style="pointer-events: none;"></g><g id="g50" class="type-text"><text x="8.806451612903226" y="9" text-anchor="middle" dy=".9em" style="font-style: normal; font-variant: normal; font-weight: normal; font-size: 11px; line-height: normal; font-family: sans-serif; fill: #000000; opacity: 1;">08-09</text><text x="42.03225806451613" y="9" text-anchor="middle" dy=".9em" style="font-style: normal; font-variant: normal; font-weight: normal; font-size: 11px; line-height: normal; font-family: sans-serif; fill: #000000; opacity: 1;">09-10</text><text x="75.25806451612904" y="9" text-anchor="middle" dy=".9em" style="font-style: normal; font-variant: normal; font-weight: normal; font-size: 11px; line-height: normal; font-family: sans-serif; fill: #000000; opacity: 1;">10-11</text><text x="108.48387096774195" y="9" text-anchor="middle" dy=".9em" style="font-style: normal; font-variant: normal; font-weight: normal; font-size: 11px; line-height: normal; font-family: sans-serif; fill: #000000; opacity: 1;">11-12</text><text x="141.70967741935485" y="9" text-anchor="middle" dy=".9em" style="font-style: normal; font-variant: normal; font-weight: normal; font-size: 11px; line-height: normal; font-family: sans-serif; fill: #000000; opacity: 1;">12-13</text><text x="174.93548387096774" y="9" text-anchor="middle" dy=".9em" style="font-style: normal; font-variant: normal; font-weight: normal; font-size: 11px; line-height: normal; font-family: sans-serif; fill: #000000; opacity: 1;">13-14</text><text x="208.16129032258067" y="9" text-anchor="middle" dy=".9em" style="font-style: normal; font-variant: normal; font-weight: normal; font-size: 11px; line-height: normal; font-family: sans-serif; fill: #000000; opacity: 1;">14-15</text><text x="241.38709677419357" y="9" text-anchor="middle" dy=".9em" style="font-style: normal; font-variant: normal; font-weight: normal; font-size: 11px; line-height: normal; font-family: sans-serif; fill: #000000; opacity: 1;">15-16</text><text x="274.61290322580646" y="9" text-anchor="middle" dy=".9em" style="font-style: normal; font-variant: normal; font-weight: normal; font-size: 11px; line-height: normal; font-family: sans-serif; fill: #000000; opacity: 1;">16-17</text><text x="307.8387096774194" y="9" text-anchor="middle" dy=".9em" style="font-style: normal; font-variant: normal; font-weight: normal; font-size: 11px; line-height: normal; font-family: sans-serif; fill: #000000; opacity: 1;">17-18</text><text x="341.06451612903226" y="9" text-anchor="middle" dy=".9em" style="font-style: normal; font-variant: normal; font-weight: normal; font-size: 11px; line-height: normal; font-family: sans-serif; fill: #000000; opacity: 1;">18-19</text><text x="374.2903225806452" y="9" text-anchor="middle" dy=".9em" style="font-style: normal; font-variant: normal; font-weight: normal; font-size: 11px; line-height: normal; font-family: sans-serif; fill: #000000; opacity: 1;">19-20</text><text x="407.5161290322581" y="9" text-anchor="middle" dy=".9em" style="font-style: normal; font-variant: normal; font-weight: normal; font-size: 11px; line-height: normal; font-family: sans-serif; fill: #000000; opacity: 1;">20-21</text><text x="440.741935483871" y="9" text-anchor="middle" dy=".9em" style="font-style: normal; font-variant: normal; font-weight: normal; font-size: 11px; line-height: normal; font-family: sans-serif; fill: #000000; opacity: 1;">21-22</text><text x="473.9677419354839" y="9" text-anchor="middle" dy=".9em" style="font-style: normal; font-variant: normal; font-weight: normal; font-size: 11px; line-height: normal; font-family: sans-serif; fill: #000000; opacity: 1;">22-23</text><text x="507.19354838709677" y="9" text-anchor="middle" dy=".9em" style="font-style: normal; font-variant: normal; font-weight: normal; font-size: 11px; line-height: normal; font-family: sans-serif; fill: #000000; opacity: 1;">23-24</text></g><g id="g51" class="type-path" style="pointer-events: none;"><path transform="translate(0.5,0.5)" d="M0,6V0H515V6" style="fill: none; stroke: #000000; stroke-width: 1px;"></path></g><g id="g52" class="type-text"><text x="257" y="50" text-anchor="middle" dy=".35em" style="font-weight: bold; font-style: normal; font-variant: normal; font-size: 11px; line-height: normal; font-family: sans-serif; fill: #000000;">Uur van de dag</text></g></g></g><g id="g53" class="type-group"><g transform="translate(0,0)"><rect class="background" width="0" height="0" style="pointer-events: none; fill: none;"></rect><g id="g54" class="type-rule" style="pointer-events: none;"><line x1="8.806451612903226" y1="0" x2="8.806451612903226" y2="443" style="fill: none; stroke: #d8d8d8; stroke-width: 1px; opacity: 1;"></line><line x1="42.03225806451613" y1="0" x2="42.03225806451613" y2="443" style="fill: none; stroke: #d8d8d8; stroke-width: 1px; opacity: 1;"></line><line x1="75.25806451612904" y1="0" x2="75.25806451612904" y2="443" style="fill: none; stroke: #d8d8d8; stroke-width: 1px; opacity: 1;"></line><line x1="108.48387096774195" y1="0" x2="108.48387096774195" y2="443" style="fill: none; stroke: #d8d8d8; stroke-width: 1px; opacity: 1;"></line><line x1="141.70967741935485" y1="0" x2="141.70967741935485" y2="443" style="fill: none; stroke: #d8d8d8; stroke-width: 1px; opacity: 1;"></line><line x1="174.93548387096774" y1="0" x2="174.93548387096774" y2="443" style="fill: none; stroke: #d8d8d8; stroke-width: 1px; opacity: 1;"></line><line x1="208.16129032258067" y1="0" x2="208.16129032258067" y2="443" style="fill: none; stroke: #d8d8d8; stroke-width: 1px; opacity: 1;"></line><line x1="241.38709677419357" y1="0" x2="241.38709677419357" y2="443" style="fill: none; stroke: #d8d8d8; stroke-width: 1px; opacity: 1;"></line><line x1="274.61290322580646" y1="0" x2="274.61290322580646" y2="443" style="fill: none; stroke: #d8d8d8; stroke-width: 1px; opacity: 1;"></line><line x1="307.8387096774194" y1="0" x2="307.8387096774194" y2="443" style="fill: none; stroke: #d8d8d8; stroke-width: 1px; opacity: 1;"></line><line x1="341.06451612903226" y1="0" x2="341.06451612903226" y2="443" style="fill: none; stroke: #d8d8d8; stroke-width: 1px; opacity: 1;"></line><line x1="374.2903225806452" y1="0" x2="374.2903225806452" y2="443" style="fill: none; stroke: #d8d8d8; stroke-width: 1px; opacity: 1;"></line><line x1="407.5161290322581" y1="0" x2="407.5161290322581" y2="443" style="fill: none; stroke: #d8d8d8; stroke-width: 1px; opacity: 1;"></line><line x1="440.741935483871" y1="0" x2="440.741935483871" y2="443" style="fill: none; stroke: #d8d8d8; stroke-width: 1px; opacity: 1;"></line><line x1="473.9677419354839" y1="0" x2="473.9677419354839" y2="443" style="fill: none; stroke: #d8d8d8; stroke-width: 1px; opacity: 1;"></line><line x1="507.19354838709677" y1="0" x2="507.19354838709677" y2="443" style="fill: none; stroke: #d8d8d8; stroke-width: 1px; opacity: 1;"></line></g><g id="g55" class="type-rule" style="pointer-events: none;"><line x1="8.806451612903226" y1="-6" x2="8.806451612903226" y2="0" style="fill: none; stroke: #000000; stroke-width: 0px; opacity: 1;"></line><line x1="42.03225806451613" y1="-6" x2="42.03225806451613" y2="0" style="fill: none; stroke: #000000; stroke-width: 0px; opacity: 1;"></line><line x1="75.25806451612904" y1="-6" x2="75.25806451612904" y2="0" style="fill: none; stroke: #000000; stroke-width: 0px; opacity: 1;"></line><line x1="108.48387096774195" y1="-6" x2="108.48387096774195" y2="0" style="fill: none; stroke: #000000; stroke-width: 0px; opacity: 1;"></line><line x1="141.70967741935485" y1="-6" x2="141.70967741935485" y2="0" style="fill: none; stroke: #000000; stroke-width: 0px; opacity: 1;"></line><line x1="174.93548387096774" y1="-6" x2="174.93548387096774" y2="0" style="fill: none; stroke: #000000; stroke-width: 0px; opacity: 1;"></line><line x1="208.16129032258067" y1="-6" x2="208.16129032258067" y2="0" style="fill: none; stroke: #000000; stroke-width: 0px; opacity: 1;"></line><line x1="241.38709677419357" y1="-6" x2="241.38709677419357" y2="0" style="fill: none; stroke: #000000; stroke-width: 0px; opacity: 1;"></line><line x1="274.61290322580646" y1="-6" x2="274.61290322580646" y2="0" style="fill: none; stroke: #000000; stroke-width: 0px; opacity: 1;"></line><line x1="307.8387096774194" y1="-6" x2="307.8387096774194" y2="0" style="fill: none; stroke: #000000; stroke-width: 0px; opacity: 1;"></line><line x1="341.06451612903226" y1="-6" x2="341.06451612903226" y2="0" style="fill: none; stroke: #000000; stroke-width: 0px; opacity: 1;"></line><line x1="374.2903225806452" y1="-6" x2="374.2903225806452" y2="0" style="fill: none; stroke: #000000; stroke-width: 0px; opacity: 1;"></line><line x1="407.5161290322581" y1="-6" x2="407.5161290322581" y2="0" style="fill: none; stroke: #000000; stroke-width: 0px; opacity: 1;"></line><line x1="440.741935483871" y1="-6" x2="440.741935483871" y2="0" style="fill: none; stroke: #000000; stroke-width: 0px; opacity: 1;"></line><line x1="473.9677419354839" y1="-6" x2="473.9677419354839" y2="0" style="fill: none; stroke: #000000; stroke-width: 0px; opacity: 1;"></line><line x1="507.19354838709677" y1="-6" x2="507.19354838709677" y2="0" style="fill: none; stroke: #000000; stroke-width: 0px; opacity: 1;"></line></g><g id="g56" class="type-rule" style="pointer-events: none;"></g><g id="g57" class="type-text"><text x="8.806451612903226" y="-9" text-anchor="middle" style="font-style: normal; font-variant: normal; font-weight: normal; font-size: 0px; line-height: normal; font-family: sans-serif; fill: #000000; opacity: 1;">08-09</text><text x="42.03225806451613" y="-9" text-anchor="middle" style="font-style: normal; font-variant: normal; font-weight: normal; font-size: 0px; line-height: normal; font-family: sans-serif; fill: #000000; opacity: 1;">09-10</text><text x="75.25806451612904" y="-9" text-anchor="middle" style="font-style: normal; font-variant: normal; font-weight: normal; font-size: 0px; line-height: normal; font-family: sans-serif; fill: #000000; opacity: 1;">10-11</text><text x="108.48387096774195" y="-9" text-anchor="middle" style="font-style: normal; font-variant: normal; font-weight: normal; font-size: 0px; line-height: normal; font-family: sans-serif; fill: #000000; opacity: 1;">11-12</text><text x="141.70967741935485" y="-9" text-anchor="middle" style="font-style: normal; font-variant: normal; font-weight: normal; font-size: 0px; line-height: normal; font-family: sans-serif; fill: #000000; opacity: 1;">12-13</text><text x="174.93548387096774" y="-9" text-anchor="middle" style="font-style: normal; font-variant: normal; font-weight: normal; font-size: 0px; line-height: normal; font-family: sans-serif; fill: #000000; opacity: 1;">13-14</text><text x="208.16129032258067" y="-9" text-anchor="middle" style="font-style: normal; font-variant: normal; font-weight: normal; font-size: 0px; line-height: normal; font-family: sans-serif; fill: #000000; opacity: 1;">14-15</text><text x="241.38709677419357" y="-9" text-anchor="middle" style="font-style: normal; font-variant: normal; font-weight: normal; font-size: 0px; line-height: normal; font-family: sans-serif; fill: #000000; opacity: 1;">15-16</text><text x="274.61290322580646" y="-9" text-anchor="middle" style="font-style: normal; font-variant: normal; font-weight: normal; font-size: 0px; line-height: normal; font-family: sans-serif; fill: #000000; opacity: 1;">16-17</text><text x="307.8387096774194" y="-9" text-anchor="middle" style="font-style: normal; font-variant: normal; font-weight: normal; font-size: 0px; line-height: normal; font-family: sans-serif; fill: #000000; opacity: 1;">17-18</text><text x="341.06451612903226" y="-9" text-anchor="middle" style="font-style: normal; font-variant: normal; font-weight: normal; font-size: 0px; line-height: normal; font-family: sans-serif; fill: #000000; opacity: 1;">18-19</text><text x="374.2903225806452" y="-9" text-anchor="middle" style="font-style: normal; font-variant: normal; font-weight: normal; font-size: 0px; line-height: normal; font-family: sans-serif; fill: #000000; opacity: 1;">19-20</text><text x="407.5161290322581" y="-9" text-anchor="middle" style="font-style: normal; font-variant: normal; font-weight: normal; font-size: 0px; line-height: normal; font-family: sans-serif; fill: #000000; opacity: 1;">20-21</text><text x="440.741935483871" y="-9" text-anchor="middle" style="font-style: normal; font-variant: normal; font-weight: normal; font-size: 0px; line-height: normal; font-family: sans-serif; fill: #000000; opacity: 1;">21-22</text><text x="473.9677419354839" y="-9" text-anchor="middle" style="font-style: normal; font-variant: normal; font-weight: normal; font-size: 0px; line-height: normal; font-family: sans-serif; fill: #000000; opacity: 1;">22-23</text><text x="507.19354838709677" y="-9" text-anchor="middle" style="font-style: normal; font-variant: normal; font-weight: normal; font-size: 0px; line-height: normal; font-family: sans-serif; fill: #000000; opacity: 1;">23-24</text></g><g id="g58" class="type-path" style="pointer-events: none;"><path transform="translate(0.5,0.5)" d="M0,-6V0H515V-6" style="fill: none; stroke: #ffffff; stroke-width: 1px;"></path></g><g id="g59" class="type-text"><text x="257" y="-35" text-anchor="middle" dy=".35em" style="font-weight: bold; font-style: normal; font-variant: normal; font-size: 11px; line-height: normal; font-family: sans-serif; fill: #000000;">Procentuele bezetting per uur van de week tijdens het tweede semester</text></g></g></g><g id="g60" class="type-group"><g transform="translate(0,0)"><rect class="background" width="0" height="0" style="fill: none;"></rect><g id="g61" class="type-line"><path d="M8.306451612903226,386.8659269925567L41.53225806451613,337.7402652571163L74.75806451612904,274.35295150348986L107.98387096774195,220.45994442293625L141.20967741935485,243.2948977429177L174.43548387096774,212.6086979075632L207.66129032258067,202.9199814358738L240.88709677419357,216.97736543132166L274.11290322580646,239.5364557296796L307.3387096774194,273.6396821734577L340.56451612903226,323.671245651049L373.7903225806452,360.38078749496714L407.0161290322581,378.3410654478027" style="fill: none; stroke: #1f77b4; stroke-width: 2px;"></path></g></g><g transform="translate(0,0)"><rect class="background" width="0" height="0" style="fill: none;"></rect><g id="g62" class="type-line"><path d="M41.53225806451613,331.91268238985253L74.75806451612904,275.9338205634414L107.98387096774195,246.93989899978982L141.20967741935485,299.5233668124725L174.43548387096774,299.483519390816L207.66129032258067,213.22981129304557L240.88709677419357,209.24282561912696L274.11290322580646,238.88847620724223L307.3387096774194,261.3168061999634L340.56451612903226,337.43959975320877L373.7903225806452,366.0747947875981L407.0161290322581,283.08692215032823L440.241935483871,325.93677628700124" style="fill: none; stroke: #ff7f0e; stroke-width: 2px;"></path></g></g><g transform="translate(0,0)"><rect class="background" width="0" height="0" style="fill: none;"></rect><g id="g63" class="type-line"><path d="M8.306451612903226,207.68767087814555L41.53225806451613,262.31664096977676L74.75806451612904,200.8217408569462L107.98387096774195,157.80931378606857L141.20967741935485,223.06069208575522L174.43548387096774,230.97498205742718L207.66129032258067,122.17256604031056L240.88709677419357,120.22389093653301L274.11290322580646,145.21501471087575L307.3387096774194,148.89190775224142L340.56451612903226,259.64638702944166L373.7903225806452,290.97608557716626L407.0161290322581,275.376896383567L440.241935483871,325.16192643339656" style="fill: none; stroke: #2ca02c; stroke-width: 2px;"></path></g></g><g transform="translate(0,0)"><rect class="background" width="0" height="0" style="fill: none;"></rect><g id="g64" class="type-line"><path d="M8.306451612903226,317.77447246027674L41.53225806451613,268.98141400694936L74.75806451612904,215.69132051308782L107.98387096774195,165.5088891736968L141.20967741935485,237.655417826506L174.43548387096774,224.33717975667048L207.66129032258067,101.31400601131297L240.88709677419357,116.50859072719004L274.11290322580646,156.46145914496753L307.3387096774194,167.86384509733796L340.56451612903226,265.89025541452474L373.7903225806452,311.0972012439133L407.0161290322581,296.543105349621L440.241935483871,332.0437637808276" style="fill: none; stroke: #d62728; stroke-width: 2px;"></path></g></g><g transform="translate(0,0)"><rect class="background" width="0" height="0" style="fill: none;"></rect><g id="g65" class="type-line"><path d="M41.53225806451613,344.9507960869664L74.75806451612904,305.66838749017086L107.98387096774195,275.3410157105423L141.20967741935485,300.5944763697545L174.43548387096774,299.85579195756765L207.66129032258067,217.11220023422828L240.88709677419357,205.16136912308914L274.11290322580646,235.3436135790492L307.3387096774194,246.27397941633077L340.56451612903226,313.654417361175L373.7903225806452,359.3919488554626L407.0161290322581,304.2087615418726L440.241935483871,332.94974657583344" style="fill: none; stroke: #9467bd; stroke-width: 2px;"></path></g></g><g transform="translate(0,0)"><rect class="background" width="0" height="0" style="fill: none;"></rect><g id="g66" class="type-line"><path d="M41.53225806451613,404.5034714418257L74.75806451612904,391.39537669574185L107.98387096774195,384.6666066589111L141.20967741935485,386.9678403137828L174.43548387096774,390.5678579910157L207.66129032258067,378.4289920045186L240.88709677419357,375.2653378200571L274.11290322580646,378.8618814821634L307.3387096774194,382.61439507064085L340.56451612903226,397.6223505338439L373.7903225806452,398.91758534585256L407.0161290322581,398.1388679476859L440.241935483871,403.80192384898095" style="fill: none; stroke: #8c564b; stroke-width: 2px;"></path></g></g><g transform="translate(0,0)"><rect class="background" width="0" height="0" style="fill: none;"></rect><g id="g67" class="type-line"><path d="M41.53225806451613,263.351701791117L74.75806451612904,200.8052241905164L107.98387096774195,160.78243818423476L141.20967741935485,233.82950878840117L174.43548387096774,256.4339038454266L207.66129032258067,147.35678590270496L240.88709677419357,146.391883605073L274.11290322580646,189.04723279846792L307.3387096774194,200.55051752030408L340.56451612903226,270.16017469917597L373.7903225806452,298.6098421844263L407.0161290322581,260.308604959969L440.241935483871,236.26386591099865L473.4677419354839,304.35711758080583" style="fill: none; stroke: #e377c2; stroke-width: 2px;"></path></g></g><g transform="translate(0,0)"><rect class="background" width="0" height="0" style="fill: none;"></rect><g id="g68" class="type-line"><path d="M8.306451612903226,238.6363479674737L41.53225806451613,183.0438834904818L74.75806451612904,114.89933370085356L107.98387096774195,72.22585309222906L141.20967741935485,153.06856670597486L174.43548387096774,133.69147683819656L207.66129032258067,37.92414332580397L240.88709677419357,20.136363636363274L274.11290322580646,31.499749404835526L307.3387096774194,67.09411864180356L340.56451612903226,179.8780900758386L373.7903225806452,147.74914196160057L407.0161290322581,81.3959549331039L440.241935483871,87.02911665529408L473.4677419354839,152.7936151912318L506.69354838709677,301.28902569821463" style="fill: none; stroke: #7f7f7f; stroke-width: 2px;"></path></g></g><g transform="translate(0,0)"><rect class="background" width="0" height="0" style="fill: none;"></rect><g id="g69" class="type-line"><path d="M8.306451612903226,378.1989488747255L41.53225806451613,345.2305452946712L74.75806451612904,314.90711103174374L107.98387096774195,290.7138347572479L141.20967741935485,326.8271874980725L174.43548387096774,325.1596716253016L207.66129032258067,284.43867672762997L240.88709677419357,286.29776041783003L274.11290322580646,298.66876459058375L307.3387096774194,315.6967856346547L340.56451612903226,368.7150627286766L373.7903225806452,369.79839964695805L407.0161290322581,358.9449400606292L440.241935483871,375.2649194380022" style="fill: none; stroke: #bcbd22; stroke-width: 2px;"></path></g></g><g transform="translate(0,0)"><rect class="background" width="0" height="0" style="fill: none;"></rect><g id="g70" class="type-line"><path d="M8.306451612903226,388.23705832966147L41.53225806451613,363.9242582413777L74.75806451612904,343.55190936822163L107.98387096774195,324.9942271220905L141.20967741935485,349.7149596671753L174.43548387096774,349.7436198084891L207.66129032258067,307.15210464668945L240.88709677419357,301.3138043686959L274.11290322580646,315.68054987605245L307.3387096774194,332.01959907404813L340.56451612903226,373.5559528197265L373.7903225806452,372.40110702622405L407.0161290322581,362.2879028953843L440.241935483871,376.98240080208893" style="fill: none; stroke: #17becf; stroke-width: 2px;"></path></g></g></g><g id="g71" class="type-group"><g transform="translate(528.2247983870968,0.5)"><rect class="background" width="207" height="166" style="pointer-events: none; fill: none;"></rect><g id="g72" class="type-text" style="pointer-events: none;"><text x="3" y="3" text-anchor="start" dy=".9em" style="font-weight: bold; font-style: normal; font-variant: normal; font-size: 11px; line-height: normal; font-family: sans-serif; fill: #000000; opacity: 1;">name</text></g><g id="g73" class="type-symbol" style="pointer-events: none;"><path transform="translate(7.5,23)" d="M0,3.989422804014327A3.989422804014327,3.989422804014327 0 1,1 0,-3.989422804014327A3.989422804014327,3.989422804014327 0 1,1 0,3.989422804014327Z" style="fill: none; stroke: #1f77b4; stroke-width: 1px; opacity: 1;"></path><path transform="translate(7.5,38)" d="M0,3.989422804014327A3.989422804014327,3.989422804014327 0 1,1 0,-3.989422804014327A3.989422804014327,3.989422804014327 0 1,1 0,3.989422804014327Z" style="fill: none; stroke: #ff7f0e; stroke-width: 1px; opacity: 1;"></path><path transform="translate(7.5,53)" d="M0,3.989422804014327A3.989422804014327,3.989422804014327 0 1,1 0,-3.989422804014327A3.989422804014327,3.989422804014327 0 1,1 0,3.989422804014327Z" style="fill: none; stroke: #2ca02c; stroke-width: 1px; opacity: 1;"></path><path transform="translate(7.5,68)" d="M0,3.989422804014327A3.989422804014327,3.989422804014327 0 1,1 0,-3.989422804014327A3.989422804014327,3.989422804014327 0 1,1 0,3.989422804014327Z" style="fill: none; stroke: #d62728; stroke-width: 1px; opacity: 1;"></path><path transform="translate(7.5,83)" d="M0,3.989422804014327A3.989422804014327,3.989422804014327 0 1,1 0,-3.989422804014327A3.989422804014327,3.989422804014327 0 1,1 0,3.989422804014327Z" style="fill: none; stroke: #9467bd; stroke-width: 1px; opacity: 1;"></path><path transform="translate(7.5,98)" d="M0,3.989422804014327A3.989422804014327,3.989422804014327 0 1,1 0,-3.989422804014327A3.989422804014327,3.989422804014327 0 1,1 0,3.989422804014327Z" style="fill: none; stroke: #8c564b; stroke-width: 1px; opacity: 1;"></path><path transform="translate(7.5,113)" d="M0,3.989422804014327A3.989422804014327,3.989422804014327 0 1,1 0,-3.989422804014327A3.989422804014327,3.989422804014327 0 1,1 0,3.989422804014327Z" style="fill: none; stroke: #e377c2; stroke-width: 1px; opacity: 1;"></path><path transform="translate(7.5,128)" d="M0,3.989422804014327A3.989422804014327,3.989422804014327 0 1,1 0,-3.989422804014327A3.989422804014327,3.989422804014327 0 1,1 0,3.989422804014327Z" style="fill: none; stroke: #7f7f7f; stroke-width: 1px; opacity: 1;"></path><path transform="translate(7.5,143)" d="M0,3.989422804014327A3.989422804014327,3.989422804014327 0 1,1 0,-3.989422804014327A3.989422804014327,3.989422804014327 0 1,1 0,3.989422804014327Z" style="fill: none; stroke: #bcbd22; stroke-width: 1px; opacity: 1;"></path><path transform="translate(7.5,158)" d="M0,3.989422804014327A3.989422804014327,3.989422804014327 0 1,1 0,-3.989422804014327A3.989422804014327,3.989422804014327 0 1,1 0,3.989422804014327Z" style="fill: none; stroke: #17becf; stroke-width: 1px; opacity: 1;"></path></g><g id="g74" class="type-text" style="pointer-events: none;"><text x="16" y="23" text-anchor="start" dy=".35em" style="font-style: normal; font-variant: normal; font-weight: normal; font-size: 10px; line-height: normal; font-family: sans-serif; fill: #000000; opacity: 1;">2Bergen - Biomedische Bibliotheek</text><text x="16" y="38" text-anchor="start" dy=".35em" style="font-style: normal; font-variant: normal; font-weight: normal; font-size: 10px; line-height: normal; font-family: sans-serif; fill: #000000; opacity: 1;">Arts</text><text x="16" y="53" text-anchor="start" dy=".35em" style="font-style: normal; font-variant: normal; font-weight: normal; font-size: 10px; line-height: normal; font-family: sans-serif; fill: #000000; opacity: 1;">Business and Economics</text><text x="16" y="68" text-anchor="start" dy=".35em" style="font-style: normal; font-variant: normal; font-weight: normal; font-size: 10px; line-height: normal; font-family: sans-serif; fill: #000000; opacity: 1;">Campuslibrary Arenberg</text><text x="16" y="83" text-anchor="start" dy=".35em" style="font-style: normal; font-variant: normal; font-weight: normal; font-size: 10px; line-height: normal; font-family: sans-serif; fill: #000000; opacity: 1;">Central Library</text><text x="16" y="98" text-anchor="start" dy=".35em" style="font-style: normal; font-variant: normal; font-weight: normal; font-size: 10px; line-height: normal; font-family: sans-serif; fill: #000000; opacity: 1;">Institute of Philosophy</text><text x="16" y="113" text-anchor="start" dy=".35em" style="font-style: normal; font-variant: normal; font-weight: normal; font-size: 10px; line-height: normal; font-family: sans-serif; fill: #000000; opacity: 1;">Law</text><text x="16" y="128" text-anchor="start" dy=".35em" style="font-style: normal; font-variant: normal; font-weight: normal; font-size: 10px; line-height: normal; font-family: sans-serif; fill: #000000; opacity: 1;">Learning Centre AGORA</text><text x="16" y="143" text-anchor="start" dy=".35em" style="font-style: normal; font-variant: normal; font-weight: normal; font-size: 10px; line-height: normal; font-family: sans-serif; fill: #000000; opacity: 1;">Psychology and Educational Sciences</text><text x="16" y="158" text-anchor="start" dy=".35em" style="font-style: normal; font-variant: normal; font-weight: normal; font-size: 10px; line-height: normal; font-family: sans-serif; fill: #000000; opacity: 1;">Social Sciences</text></g></g></g></g></g></g></svg>