<svg class="marks" width="800" height="552" xmlns="http://www.w3.org/2000/svg"><g transform="translate(61,46)"><g id="g38" class="type-group"><g transform="translate(0,0)"><rect class="background" width="515" height="443" style="pointer-events: none; fill: none;"></rect><g id="g39" class="type-group"><g transform="translate(0,0)"><rect class="background" width="0" height="0" style="pointer-events: none; fill: none;"></rect><g id="g40" class="type-rule" style="pointer-events: none;"><line x1="0" y1="423.3636363636363" x2="515" y2="423.3636363636363" style="fill: none; stroke: #d8d8d8; stroke-width: 1px; opacity: 1;"></line><line x1="0" y1="379.29950536201216" x2="515" y2="379.29950536201216" style="fill: none; stroke: #d8d8d8; stroke-width: 1px; opacity: 1;"></line><line x1="0" y1="335.235374360388" x2="515" y2="335.235374360388" style="fill: none; stroke: #d8d8d8; stroke-width: 1px; opacity: 1;"></line><line x1="0" y1="291.17124335876383" x2="515" y2="291.17124335876383" style="fill: none; stroke: #d8d8d8; stroke-width: 1px; opacity: 1;"></line><line x1="0" y1="247.1071123571397" x2="515" y2="247.1071123571397" style="fill: none; stroke: #d8d8d8; stroke-width: 1px; opacity: 1;"></line><line x1="0" y1="203.04298135551554" x2="515" y2="203.04298135551554" style="fill: none; stroke: #d8d8d8; stroke-width: 1px; opacity: 1;"></line><line x1="0" y1="158.97885035389137" x2="515" y2="158.97885035389137" style="fill: none; stroke: #d8d8d8; stroke-width: 1px; opacity: 1;"></line><line x1="0" y1="114.9147193522672" x2="515" y2="114.9147193522672" style="fill: none; stroke: #d8d8d8; stroke-width: 1px; opacity: 1;"></line><line x1="0" y1="70.85058835064304" x2="515" y2="70.85058835064304" style="fill: none; stroke: #d8d8d8; stroke-width: 1px; opacity: 1;"></line><line x1="0" y1="26.78645734901888" x2="515" y2="26.78645734901888" style="fill: none; stroke: #d8d8d8; stroke-width: 1px; opacity: 1;"></line></g><g id="g41" class="type-rule" style="pointer-events: none;"><line x1="-6" y1="423.3636363636363" x2="0" y2="423.3636363636363" style="fill: none; stroke: #000000; stroke-width: 1px; opacity: 1;"></line><line x1="-6" y1="379.29950536201216" x2="0" y2="379.29950536201216" style="fill: none; stroke: #000000; stroke-width: 1px; opacity: 1;"></line><line x1="-6" y1="335.235374360388" x2="0" y2="335.235374360388" style="fill: none; stroke: #000000; stroke-width: 1px; opacity: 1;"></line><line x1="-6" y1="291.17124335876383" x2="0" y2="291.17124335876383" style="fill: none; stroke: #000000; stroke-width: 1px; opacity: 1;"></line><line x1="-6" y1="247.1071123571397" x2="0" y2="247.1071123571397" style="fill: none; stroke: #000000; stroke-width: 1px; opacity: 1;"></line><line x1="-6" y1="203.04298135551554" x2="0" y2="203.04298135551554" style="fill: none; stroke: #000000; stroke-width: 1px; opacity: 1;"></line><line x1="-6" y1="158.97885035389137" x2="0" y2="158.97885035389137" style="fill: none; stroke: #000000; stroke-width: 1px; opacity: 1;"></line><line x1="-6" y1="114.9147193522672" x2="0" y2="114.9147193522672" style="fill: none; stroke: #000000; stroke-width: 1px; opacity: 1;"></line><line x1="-6" y1="70.85058835064304" x2="0" y2="70.85058835064304" style="fill: none; stroke: #000000; stroke-width: 1px; opacity: 1;"></line><line x1="-6" y1="26.78645734901888" x2="0" y2="26.78645734901888" style="fill: none; stroke: #000000; stroke-width: 1px; opacity: 1;"></line></g><g id="g42" class="type-rule" style="pointer-events: none;"></g><g id="g43" class="type-text"><text x="-9" y="423.3636363636363" text-anchor="end" dy=".35em" style="font-style: normal; font-variant: normal; font-weight: normal; font-size: 11px; line-height: normal; font-family: sans-serif; fill: #000000; opacity: 1;">0</text><text x="-9" y="379.29950536201216" text-anchor="end" dy=".35em" style="font-style: normal; font-variant: normal; font-weight: normal; font-size: 11px; line-height: normal; font-family: sans-serif; fill: #000000; opacity: 1;">50</text><text x="-9" y="335.235374360388" text-anchor="end" dy=".35em" style="font-style: normal; font-variant: normal; font-weight: normal; font-size: 11px; line-height: normal; font-family: sans-serif; fill: #000000; opacity: 1;">100</text><text x="-9" y="291.17124335876383" text-anchor="end" dy=".35em" style="font-style: normal; font-variant: normal; font-weight: normal; font-size: 11px; line-height: normal; font-family: sans-serif; fill: #000000; opacity: 1;">150</text><text x="-9" y="247.1071123571397" text-anchor="end" dy=".35em" style="font-style: normal; font-variant: normal; font-weight: normal; font-size: 11px; line-height: normal; font-family: sans-serif; fill: #000000; opacity: 1;">200</text><text x="-9" y="203.04298135551554" text-anchor="end" dy=".35em" style="font-style: normal; font-variant: normal; font-weight: normal; font-size: 11px; line-height: normal; font-family: sans-serif; fill: #000000; opacity: 1;">250</text><text x="-9" y="158.97885035389137" text-anchor="end" dy=".35em" style="font-style: normal; font-variant: normal; font-weight: normal; font-size: 11px; line-height: normal; font-family: sans-serif; fill: #000000; opacity: 1;">300</text><text x="-9" y="114.9147193522672" text-anchor="end" dy=".35em" style="font-style: normal; font-variant: normal; font-weight: normal; font-size: 11px; line-height: normal; font-family: sans-serif; fill: #000000; opacity: 1;">350</text><text x="-9" y="70.85058835064304" text-anchor="end" dy=".35em" style="font-style: normal; font-variant: normal; font-weight: normal; font-size: 11px; line-height: normal; font-family: sans-serif; fill: #000000; opacity: 1;">400</text><text x="-9" y="26.78645734901888" text-anchor="end" dy=".35em" style="font-style: normal; font-variant: normal; font-weight: normal; font-size: 11px; line-height: normal; font-family: sans-serif; fill: #000000; opacity: 1;">450</text></g><g id="g44" class="type-path" style="pointer-events: none;"><path transform="translate(0.5,0.5)" d="M-6,0H0V443H-6" style="fill: none; stroke: #000000; stroke-width: 1px;"></path></g><g id="g45" class="type-text"><text x="-50" y="221" text-anchor="middle" transform="rotate(-90 -50,221)" dy=".35em" style="font-weight: bold; font-style: normal; font-variant: normal; font-size: 11px; line-height: normal; font-family: sans-serif; fill: #000000;">Aantal studenten in de bibs</text></g></g></g><g id="g46" class="type-group"><g transform="translate(0,443)"><rect class="background" width="0" height="0" style="pointer-events: none; fill: none;"></rect><g id="g47" class="type-rule" style="pointer-events: none;"><line x1="8.806451612903226" y1="-443" x2="8.806451612903226" y2="0" style="fill: none; stroke: #d8d8d8; stroke-width: 1px; opacity: 1;"></line><line x1="42.03225806451613" y1="-443" x2="42.03225806451613" y2="0" style="fill: none; stroke: #d8d8d8; stroke-width: 1px; opacity: 1;"></line><line x1="75.25806451612904" y1="-443" x2="75.25806451612904" y2="0" style="fill: none; stroke: #d8d8d8; stroke-width: 1px; opacity: 1;"></line><line x1="108.48387096774195" y1="-443" x2="108.48387096774195" y2="0" style="fill: none; stroke: #d8d8d8; stroke-width: 1px; opacity: 1;"></line><line x1="141.70967741935485" y1="-443" x2="141.70967741935485" y2="0" style="fill: none; stroke: #d8d8d8; stroke-width: 1px; opacity: 1;"></line><line x1="174.93548387096774" y1="-443" x2="174.93548387096774" y2="0" style="fill: none; stroke: #d8d8d8; stroke-width: 1px; opacity: 1;"></line><line x1="208.16129032258067" y1="-443" x2="208.16129032258067" y2="0" style="fill: none; stroke: #d8d8d8; stroke-width: 1px; opacity: 1;"></line><line x1="241.38709677419357" y1="-443" x2="241.38709677419357" y2="0" style="fill: none; stroke: #d8d8d8; stroke-width: 1px; opacity: 1;"></line><line x1="274.61290322580646" y1="-443" x2="274.61290322580646" y2="0" style="fill: none; stroke: #d8d8d8; stroke-width: 1px; opacity: 1;"></line><line x1="307.8387096774194" y1="-443" x2="307.8387096774194" y2="0" style="fill: none; stroke: #d8d8d8; stroke-width: 1px; opacity: 1;"></line><line x1="341.06451612903226" y1="-443" x2="341.06451612903226" y2="0" style="fill: none; stroke: #d8d8d8; stroke-width: 1px; opacity: 1;"></line><line x1="374.2903225806452" y1="-443" x2="374.2903225806452" y2="0" style="fill: none; stroke: #d8d8d8; stroke-width: 1px; opacity: 1;"></line><line x1="407.5161290322581" y1="-443" x2="407.5161290322581" y2="0" style="fill: none; stroke: #d8d8d8; stroke-width: 1px; opacity: 1;"></line><line x1="440.741935483871" y1="-443" x2="440.741935483871" y2="0" style="fill: none; stroke: #d8d8d8; stroke-width: 1px; opacity: 1;"></line><line x1="473.9677419354839" y1="-443" x2="473.9677419354839" y2="0" style="fill: none; stroke: #d8d8d8; stroke-width: 1px; opacity: 1;"></line><line x1="507.19354838709677" y1="-443" x2="507.19354838709677" y2="0" style="fill: none; stroke: #d8d8d8; stroke-width: 1px; opacity: 1;"></line></g><g id="g48" class="type-rule" style="pointer-events: none;"><line x1="8.806451612903226" y1="0" x2="8.806451612903226" y2="6" style="fill: none; stroke: #000000; stroke-width: 1px; opacity: 1;"></line><line x1="42.03225806451613" y1="0" x2="42.03225806451613" y2="6" style="fill: none; stroke: #000000; stroke-width: 1px; opacity: 1;"></line><line x1="75.25806451612904" y1="0" x2="75.25806451612904" y2="6" style="fill: none; stroke: #000000; stroke-width: 1px; opacity: 1;"></line><line x1="108.48387096774195" y1="0" x2="108.48387096774195" y2="6" style="fill: none; stroke: #000000; stroke-width: 1px; opacity: 1;"></line><line x1="141.70967741935485" y1="0" x2="141.70967741935485" y2="6" style="fill: none; stroke: #000000; stroke-width: 1px; opacity: 1;"></line><line x1="174.93548387096774" y1="0" x2="174.93548387096774" y2="6" style="fill: none; stroke: #000000; stroke-width: 1px; opacity: 1;"></line><line x1="208.16129032258067" y1="0" x2="208.16129032258067" y2="6" style="fill: none; stroke: #000000; stroke-width: 1px; opacity: 1;"></line><line x1="241.38709677419357" y1="0" x2="241.38709677419357" y2="6" style="fill: none; stroke: #000000; stroke-width: 1px; opacity: 1;"></line><line x1="274.61290322580646" y1="0" x2="274.61290322580646" y2="6" style="fill: none; stroke: #000000; stroke-width: 1px; opacity: 1;"></line><line x1="307.8387096774194" y1="0" x2="307.8387096774194" y2="6" style="fill: none; stroke: #000000; stroke-width: 1px; opacity: 1;"></line><line x1="341.06451612903226" y1="0" x2="341.06451612903226" y2="6" style="fill: none; stroke: #000000; stroke-width: 1px; opacity: 1;"></line><line x1="374.2903225806452" y1="0" x2="374.2903225806452" y2="6" style="fill: none; stroke: #000000; stroke-width: 1px; opacity: 1;"></line><line x1="407.5161290322581" y1="0" x2="407.5161290322581" y2="6" style="fill: none; stroke: #000000; stroke-width: 1px; opacity: 1;"></line><line x1="440.741935483871" y1="0" x2="440.741935483871" y2="6" style="fill: none; stroke: #000000; stroke-width: 1px; opacity: 1;"></line><line x1="473.9677419354839" y1="0" x2="473.9677419354839" y2="6" style="fill: none; stroke: #000000; stroke-width: 1px; opacity: 1;"></line><line x1="507.19354838709677" y1="0" x2="507.19354838709677" y2="6" style="fill: none; stroke: #000000; stroke-width: 1px; opacity: 1;"></line></g><g id="g49" class="type-rule" style="pointer-events: none;"></g><g id="g50" class="type-text"><text x="8.806451612903226" y="9" text-anchor="middle" dy=".9em" style="font-style: normal; font-variant: normal; font-weight: normal; font-size: 11px; line-height: normal; font-family: sans-serif; fill: #000000; opacity: 1;">08</text><text x="42.03225806451613" y="9" text-anchor="middle" dy=".9em" style="font-style: normal; font-variant: normal; font-weight: normal; font-size: 11px; line-height: normal; font-family: sans-serif; fill: #000000; opacity: 1;">09</text><text x="75.25806451612904" y="9" text-anchor="middle" dy=".9em" style="font-style: normal; font-variant: normal; font-weight: normal; font-size: 11px; line-height: normal; font-family: sans-serif; fill: #000000; opacity: 1;">10</text><text x="108.48387096774195" y="9" text-anchor="middle" dy=".9em" style="font-style: normal; font-variant: normal; font-weight: normal; font-size: 11px; line-height: normal; font-family: sans-serif; fill: #000000; opacity: 1;">11</text><text x="141.70967741935485" y="9" text-anchor="middle" dy=".9em" style="font-style: normal; font-variant: normal; font-weight: normal; font-size: 11px; line-height: normal; font-family: sans-serif; fill: #000000; opacity: 1;">12</text><text x="174.93548387096774" y="9" text-anchor="middle" dy=".9em" style="font-style: normal; font-variant: normal; font-weight: normal; font-size: 11px; line-height: normal; font-family: sans-serif; fill: #000000; opacity: 1;">13</text><text x="208.16129032258067" y="9" text-anchor="middle" dy=".9em" style="font-style: normal; font-variant: normal; font-weight: normal; font-size: 11px; line-height: normal; font-family: sans-serif; fill: #000000; opacity: 1;">14</text><text x="241.38709677419357" y="9" text-anchor="middle" dy=".9em" style="font-style: normal; font-variant: normal; font-weight: normal; font-size: 11px; line-height: normal; font-family: sans-serif; fill: #000000; opacity: 1;">15</text><text x="274.61290322580646" y="9" text-anchor="middle" dy=".9em" style="font-style: normal; font-variant: normal; font-weight: normal; font-size: 11px; line-height: normal; font-family: sans-serif; fill: #000000; opacity: 1;">16</text><text x="307.8387096774194" y="9" text-anchor="middle" dy=".9em" style="font-style: normal; font-variant: normal; font-weight: normal; font-size: 11px; line-height: normal; font-family: sans-serif; fill: #000000; opacity: 1;">17</text><text x="341.06451612903226" y="9" text-anchor="middle" dy=".9em" style="font-style: normal; font-variant: normal; font-weight: normal; font-size: 11px; line-height: normal; font-family: sans-serif; fill: #000000; opacity: 1;">18</text><text x="374.2903225806452" y="9" text-anchor="middle" dy=".9em" style="font-style: normal; font-variant: normal; font-weight: normal; font-size: 11px; line-height: normal; font-family: sans-serif; fill: #000000; opacity: 1;">19</text><text x="407.5161290322581" y="9" text-anchor="middle" dy=".9em" style="font-style: normal; font-variant: normal; font-weight: normal; font-size: 11px; line-height: normal; font-family: sans-serif; fill: #000000; opacity: 1;">20</text><text x="440.741935483871" y="9" text-anchor="middle" dy=".9em" style="font-style: normal; font-variant: normal; font-weight: normal; font-size: 11px; line-height: normal; font-family: sans-serif; fill: #000000; opacity: 1;">21</text><text x="473.9677419354839" y="9" text-anchor="middle" dy=".9em" style="font-style: normal; font-variant: normal; font-weight: normal; font-size: 11px; line-height: normal; font-family: sans-serif; fill: #000000; opacity: 1;">22</text><text x="507.19354838709677" y="9" text-anchor="middle" dy=".9em" style="font-style: normal; font-variant: normal; font-weight: normal; font-size: 11px; line-height: normal; font-family: sans-serif; fill: #000000; opacity: 1;">23</text></g><g id="g51" class="type-path" style="pointer-events: none;"><path transform="translate(0.5,0.5)" d="M0,6V0H515V6" style="fill: none; stroke: #000000; stroke-width: 1px;"></path></g><g id="g52" class="type-text"><text x="257" y="50" text-anchor="middle" dy=".35em" style="font-weight: bold; font-style: normal; font-variant: normal; font-size: 11px; line-height: normal; font-family: sans-serif; fill: #000000;">Uur van de dag</text></g></g></g><g id="g53" class="type-group"><g transform="translate(0,0)"><rect class="background" width="0" height="0" style="pointer-events: none; fill: none;"></rect><g id="g54" class="type-rule" style="pointer-events: none;"><line x1="8.806451612903226" y1="0" x2="8.806451612903226" y2="443" style="fill: none; stroke: #d8d8d8; stroke-width: 1px; opacity: 1;"></line><line x1="42.03225806451613" y1="0" x2="42.03225806451613" y2="443" style="fill: none; stroke: #d8d8d8; stroke-width: 1px; opacity: 1;"></line><line x1="75.25806451612904" y1="0" x2="75.25806451612904" y2="443" style="fill: none; stroke: #d8d8d8; stroke-width: 1px; opacity: 1;"></line><line x1="108.48387096774195" y1="0" x2="108.48387096774195" y2="443" style="fill: none; stroke: #d8d8d8; stroke-width: 1px; opacity: 1;"></line><line x1="141.70967741935485" y1="0" x2="141.70967741935485" y2="443" style="fill: none; stroke: #d8d8d8; stroke-width: 1px; opacity: 1;"></line><line x1="174.93548387096774" y1="0" x2="174.93548387096774" y2="443" style="fill: none; stroke: #d8d8d8; stroke-width: 1px; opacity: 1;"></line><line x1="208.16129032258067" y1="0" x2="208.16129032258067" y2="443" style="fill: none; stroke: #d8d8d8; stroke-width: 1px; opacity: 1;"></line><line x1="241.38709677419357" y1="0" x2="241.38709677419357" y2="443" style="fill: none; stroke: #d8d8d8; stroke-width: 1px; opacity: 1;"></line><line x1="274.61290322580646" y1="0" x2="274.61290322580646" y2="443" style="fill: none; stroke: #d8d8d8; stroke-width: 1px; opacity: 1;"></line><line x1="307.8387096774194" y1="0" x2="307.8387096774194" y2="443" style="fill: none; stroke: #d8d8d8; stroke-width: 1px; opacity: 1;"></line><line x1="341.06451612903226" y1="0" x2="341.06451612903226" y2="443" style="fill: none; stroke: #d8d8d8; stroke-width: 1px; opacity: 1;"></line><line x1="374.2903225806452" y1="0" x2="374.2903225806452" y2="443" style="fill: none; stroke: #d8d8d8; stroke-width: 1px; opacity: 1;"></line><line x1="407.5161290322581" y1="0" x2="407.5161290322581" y2="443" style="fill: none; stroke: #d8d8d8; stroke-width: 1px; opacity: 1;"></line><line x1="440.741935483871" y1="0" x2="440.741935483871" y2="443" style="fill: none; stroke: #d8d8d8; stroke-width: 1px; opacity: 1;"></line><line x1="473.9677419354839" y1="0" x2="473.9677419354839" y2="443" style="fill: none; stroke: #d8d8d8; stroke-width: 1px; opacity: 1;"></line><line x1="507.19354838709677" y1="0" x2="507.19354838709677" y2="443" style="fill: none; stroke: #d8d8d8; stroke-width: 1px; opacity: 1;"></line></g><g id="g55" class="type-rule" style="pointer-events: none;"><line x1="8.806451612903226" y1="-6" x2="8.806451612903226" y2="0" style="fill: none; stroke: #000000; stroke-width: 0px; opacity: 1;"></line><line x1="42.03225806451613" y1="-6" x2="42.03225806451613" y2="0" style="fill: none; stroke: #000000; stroke-width: 0px; opacity: 1;"></line><line x1="75.25806451612904" y1="-6" x2="75.25806451612904" y2="0" style="fill: none; stroke: #000000; stroke-width: 0px; opacity: 1;"></line><line x1="108.48387096774195" y1="-6" x2="108.48387096774195" y2="0" style="fill: none; stroke: #000000; stroke-width: 0px; opacity: 1;"></line><line x1="141.70967741935485" y1="-6" x2="141.70967741935485" y2="0" style="fill: none; stroke: #000000; stroke-width: 0px; opacity: 1;"></line><line x1="174.93548387096774" y1="-6" x2="174.93548387096774" y2="0" style="fill: none; stroke: #000000; stroke-width: 0px; opacity: 1;"></line><line x1="208.16129032258067" y1="-6" x2="208.16129032258067" y2="0" style="fill: none; stroke: #000000; stroke-width: 0px; opacity: 1;"></line><line x1="241.38709677419357" y1="-6" x2="241.38709677419357" y2="0" style="fill: none; stroke: #000000; stroke-width: 0px; opacity: 1;"></line><line x1="274.61290322580646" y1="-6" x2="274.61290322580646" y2="0" style="fill: none; stroke: #000000; stroke-width: 0px; opacity: 1;"></line><line x1="307.8387096774194" y1="-6" x2="307.8387096774194" y2="0" style="fill: none; stroke: #000000; stroke-width: 0px; opacity: 1;"></line><line x1="341.06451612903226" y1="-6" x2="341.06451612903226" y2="0" style="fill: none; stroke: #000000; stroke-width: 0px; opacity: 1;"></line><line x1="374.2903225806452" y1="-6" x2="374.2903225806452" y2="0" style="fill: none; stroke: #000000; stroke-width: 0px; opacity: 1;"></line><line x1="407.5161290322581" y1="-6" x2="407.5161290322581" y2="0" style="fill: none; stroke: #000000; stroke-width: 0px; opacity: 1;"></line><line x1="440.741935483871" y1="-6" x2="440.741935483871" y2="0" style="fill: none; stroke: #000000; stroke-width: 0px; opacity: 1;"></line><line x1="473.9677419354839" y1="-6" x2="473.9677419354839" y2="0" style="fill: none; stroke: #000000; stroke-width: 0px; opacity: 1;"></line><line x1="507.19354838709677" y1="-6" x2="507.19354838709677" y2="0" style="fill: none; stroke: #000000; stroke-width: 0px; opacity: 1;"></line></g><g id="g56" class="type-rule" style="pointer-events: none;"></g><g id="g57" class="type-text"><text x="8.806451612903226" y="-9" text-anchor="middle" style="font-style: normal; font-variant: normal; font-weight: normal; font-size: 0px; line-height: normal; font-family: sans-serif; fill: #000000; opacity: 1;">08</text><text x="42.03225806451613" y="-9" text-anchor="middle" style="font-style: normal; font-variant: normal; font-weight: normal; font-size: 0px; line-height: normal; font-family: sans-serif; fill: #000000; opacity: 1;">09</text><text x="75.25806451612904" y="-9" text-anchor="middle" style="font-style: normal; font-variant: normal; font-weight: normal; font-size: 0px; line-height: normal; font-family: sans-serif; fill: #000000; opacity: 1;">10</text><text x="108.48387096774195" y="-9" text-anchor="middle" style="font-style: normal; font-variant: normal; font-weight: normal; font-size: 0px; line-height: normal; font-family: sans-serif; fill: #000000; opacity: 1;">11</text><text x="141.70967741935485" y="-9" text-anchor="middle" style="font-style: normal; font-variant: normal; font-weight: normal; font-size: 0px; line-height: normal; font-family: sans-serif; fill: #000000; opacity: 1;">12</text><text x="174.93548387096774" y="-9" text-anchor="middle" style="font-style: normal; font-variant: normal; font-weight: normal; font-size: 0px; line-height: normal; font-family: sans-serif; fill: #000000; opacity: 1;">13</text><text x="208.16129032258067" y="-9" text-anchor="middle" style="font-style: normal; font-variant: normal; font-weight: normal; font-size: 0px; line-height: normal; font-family: sans-serif; fill: #000000; opacity: 1;">14</text><text x="241.38709677419357" y="-9" text-anchor="middle" style="font-style: normal; font-variant: normal; font-weight: normal; font-size: 0px; line-height: normal; font-family: sans-serif; fill: #000000; opacity: 1;">15</text><text x="274.61290322580646" y="-9" text-anchor="middle" style="font-style: normal; font-variant: normal; font-weight: normal; font-size: 0px; line-height: normal; font-family: sans-serif; fill: #000000; opacity: 1;">16</text><text x="307.8387096774194" y="-9" text-anchor="middle" style="font-style: normal; font-variant: normal; font-weight: normal; font-size: 0px; line-height: normal; font-family: sans-serif; fill: #000000; opacity: 1;">17</text><text x="341.06451612903226" y="-9" text-anchor="middle" style="font-style: normal; font-variant: normal; font-weight: normal; font-size: 0px; line-height: normal; font-family: sans-serif; fill: #000000; opacity: 1;">18</text><text x="374.2903225806452" y="-9" text-anchor="middle" style="font-style: normal; font-variant: normal; font-weight: normal; font-size: 0px; line-height: normal; font-family: sans-serif; fill: #000000; opacity: 1;">19</text><text x="407.5161290322581" y="-9" text-anchor="middle" style="font-style: normal; font-variant: normal; font-weight: normal; font-size: 0px; line-height: normal; font-family: sans-serif; fill: #000000; opacity: 1;">20</text><text x="440.741935483871" y="-9" text-anchor="middle" style="font-style: normal; font-variant: normal; font-weight: normal; font-size: 0px; line-height: normal; font-family: sans-serif; fill: #000000; opacity: 1;">21</text><text x="473.9677419354839" y="-9" text-anchor="middle" style="font-style: normal; font-variant: normal; font-weight: normal; font-size: 0px; line-height: normal; font-family: sans-serif; fill: #000000; opacity: 1;">22</text><text x="507.19354838709677" y="-9" text-anchor="middle" style="font-style: normal; font-variant: normal; font-weight: normal; font-size: 0px; line-height: normal; font-family: sans-serif; fill: #000000; opacity: 1;">23</text></g><g id="g58" class="type-path" style="pointer-events: none;"><path transform="translate(0.5,0.5)" d="M0,-6V0H515V-6" style="fill: none; stroke: #ffffff; stroke-width: 1px;"></path></g><g id="g59" class="type-text"><text x="257" y="-35" text-anchor="middle" dy=".35em" style="font-weight: bold; font-style: normal; font-variant: normal; font-size: 11px; line-height: normal; font-family: sans-serif; fill: #000000;">Procentuele bezetting per uur van de week tijdens een week tijdens de blok</text></g></g></g><g id="g60" class="type-group"><g transform="translate(0,0)"><rect class="background" width="0" height="0" style="fill: none;"></rect><g id="g61" class="type-line"><path d="M8.306451612903226,364.4639747428171L41.53225806451613,318.49333567318934L74.75806451612904,281.93773259424194L107.98387096774195,268.6832419889534L141.20967741935485,304.8445668870253L174.43548387096774,287.5955670148505L207.66129032258067,255.34618911715683L240.88709677419357,263.4396103997601L274.11290322580646,271.7677311590671L307.3387096774194,280.32362958016745L340.56451612903226,322.9085615995521L373.7903225806452,336.64775764585846L407.0161290322581,347.4527464004147" style="fill: none; stroke: #1f77b4; stroke-width: 2px;"></path></g></g><g transform="translate(0,0)"><rect class="background" width="0" height="0" style="fill: none;"></rect><g id="g62" class="type-line"><path d="M41.53225806451613,260.39918536064806L74.75806451612904,216.89026240964432L107.98387096774195,215.77984630840342L141.20967741935485,301.7321065728842L174.43548387096774,296.32907777937237L207.66129032258067,199.79755407763514L240.88709677419357,209.85762710178514L274.11290322580646,235.97003113334767L307.3387096774194,220.48928504791533L340.56451612903226,323.93966226499015L373.7903225806452,317.3961388112489L407.0161290322581,282.79477994222356L440.241935483871,324.34725547675515" style="fill: none; stroke: #ff7f0e; stroke-width: 2px;"></path></g></g><g transform="translate(0,0)"><rect class="background" width="0" height="0" style="fill: none;"></rect><g id="g63" class="type-line"><path d="M8.306451612903226,193.6244012407868L41.53225806451613,125.87139341268951L74.75806451612904,132.69503884208376L107.98387096774195,116.9767338262189L141.20967741935485,214.34012609274566L174.43548387096774,238.1593889565429L207.66129032258067,116.24089596941738L240.88709677419357,117.8957857013955L274.11290322580646,126.22390646070244L307.3387096774194,120.59096101079177L340.56451612903226,248.88585741750916L373.7903225806452,278.060089066099L407.0161290322581,222.2748992180428L440.241935483871,280.2192314851786" style="fill: none; stroke: #2ca02c; stroke-width: 2px;"></path></g></g><g transform="translate(0,0)"><rect class="background" width="0" height="0" style="fill: none;"></rect><g id="g64" class="type-line"><path d="M8.306451612903226,151.44621504603214L41.53225806451613,52.25785616137617L74.75806451612904,99.33219679799679L107.98387096774195,54.06574450761459L141.20967741935485,152.45383308761959L174.43548387096774,225.93474004152043L207.66129032258067,46.56987259850315L240.88709677419357,63.81021233483019L274.11290322580646,106.38245775825663L307.3387096774194,77.13598030367379L340.56451612903226,221.7045834653645L373.7903225806452,276.9320473124574L407.0161290322581,230.87714525547577L440.241935483871,290.37160726795275" style="fill: none; stroke: #d62728; stroke-width: 2px;"></path></g></g><g transform="translate(0,0)"><rect class="background" width="0" height="0" style="fill: none;"></rect><g id="g65" class="type-line"><path d="M41.53225806451613,320.52028569926404L74.75806451612904,282.18575070302285L107.98387096774195,258.62403036886803L141.20967741935485,301.67879171127476L174.43548387096774,308.8193704555755L207.66129032258067,238.71400065050256L240.88709677419357,234.38246344211728L274.11290322580646,250.47216613356755L307.3387096774194,265.2496293193651L340.56451612903226,326.0862149323546L373.7903225806452,351.45330566240426L407.0161290322581,343.69801860611835L440.241935483871,365.906340630937" style="fill: none; stroke: #9467bd; stroke-width: 2px;"></path></g></g><g transform="translate(0,0)"><rect class="background" width="0" height="0" style="fill: none;"></rect><g id="g66" class="type-line"><path d="M41.53225806451613,392.1333114031037L74.75806451612904,381.3111608291048L107.98387096774195,379.64553667724334L141.20967741935485,389.1672206371596L174.43548387096774,395.78182145003814L207.66129032258067,379.27957247345097L240.88709677419357,379.2665851506294L274.11290322580646,380.25362168506575L307.3387096774194,383.161854331173L340.56451612903226,401.3779660872444L373.7903225806452,394.51938409684163L407.0161290322581,394.7982636627861L440.241935483871,401.1179877143348" style="fill: none; stroke: #8c564b; stroke-width: 2px;"></path></g></g><g transform="translate(0,0)"><rect class="background" width="0" height="0" style="fill: none;"></rect><g id="g67" class="type-line"><path d="M41.53225806451613,189.89657575804938L74.75806451612904,183.43803312838315L107.98387096774195,171.5407177579446L141.20967741935485,268.0148903870527L174.43548387096774,275.00329734975816L207.66129032258067,169.2878148195154L240.88709677419357,170.58389662762298L274.11290322580646,199.1059791373888L307.3387096774194,179.46935601091792L340.56451612903226,280.0580826632299L373.7903225806452,302.23367133359005L407.0161290322581,239.2395896536681L440.241935483871,232.77097522262972L473.4677419354839,314.576034427145" style="fill: none; stroke: #e377c2; stroke-width: 2px;"></path></g></g><g transform="translate(0,0)"><rect class="background" width="0" height="0" style="fill: none;"></rect><g id="g68" class="type-line"><path d="M8.306451612903226,103.76345809233317L41.53225806451613,47.68274038823576L74.75806451612904,37.00033605827106L107.98387096774195,37.12623357541843L141.20967741935485,177.21349566645793L174.43548387096774,141.0483391048207L207.66129032258067,37.08415729995094L240.88709677419357,20.136363636364013L274.11290322580646,22.66690373102818L307.3387096774194,51.40252779872527L340.56451612903226,180.31577470312448L373.7903225806452,160.99050582098397L407.0161290322581,71.21928121896049L440.241935483871,83.99787920943152L473.4677419354839,165.05699562484838L506.69354838709677,305.9300224370408" style="fill: none; stroke: #7f7f7f; stroke-width: 2px;"></path></g></g><g transform="translate(0,0)"><rect class="background" width="0" height="0" style="fill: none;"></rect><g id="g69" class="type-line"><path d="M8.306451612903226,328.17863166734634L41.53225806451613,293.4032194808645L74.75806451612904,291.2352642355846L107.98387096774195,278.5183560285159L141.20967741935485,345.82842354845775L174.43548387096774,337.6171685278942L207.66129032258067,282.53886010769577L240.88709677419357,290.6976818373648L274.11290322580646,295.5799875523448L307.3387096774194,293.3496646139551L340.56451612903226,364.6196680056895L373.7903225806452,350.146804178206L407.0161290322581,322.63977040044216L440.241935483871,352.18477023703116" style="fill: none; stroke: #bcbd22; stroke-width: 2px;"></path></g></g><g transform="translate(0,0)"><rect class="background" width="0" height="0" style="fill: none;"></rect><g id="g70" class="type-line"><path d="M8.306451612903226,337.83748918290235L41.53225806451613,315.12683606466527L74.75806451612904,313.11751169099114L107.98387096774195,306.98378465556516L141.20967741935485,350.5946298574073L174.43548387096774,355.91259571976855L207.66129032258067,308.92353408555243L240.88709677419357,305.3357861561044L274.11290322580646,317.8499993605656L307.3387096774194,318.95431427443714L340.56451612903226,365.2982556231145L373.7903225806452,369.9756631289369L407.0161290322581,352.7697795551975L440.241935483871,367.73940848060454" style="fill: none; stroke: #17becf; stroke-width: 2px;"></path></g></g></g><g id="g71" class="type-group"><g transform="translate(528.2247983870968,0.5)"><rect class="background" width="207" height="166" style="pointer-events: none; fill: none;"></rect><g id="g72" class="type-text" style="pointer-events: none;"><text x="3" y="3" text-anchor="start" dy=".9em" style="font-weight: bold; font-style: normal; font-variant: normal; font-size: 11px; line-height: normal; font-family: sans-serif; fill: #000000; opacity: 1;">name</text></g><g id="g73" class="type-symbol" style="pointer-events: none;"><path transform="translate(7.5,23)" d="M0,3.989422804014327A3.989422804014327,3.989422804014327 0 1,1 0,-3.989422804014327A3.989422804014327,3.989422804014327 0 1,1 0,3.989422804014327Z" style="fill: none; stroke: #1f77b4; stroke-width: 1px; opacity: 1;"></path><path transform="translate(7.5,38)" d="M0,3.989422804014327A3.989422804014327,3.989422804014327 0 1,1 0,-3.989422804014327A3.989422804014327,3.989422804014327 0 1,1 0,3.989422804014327Z" style="fill: none; stroke: #ff7f0e; stroke-width: 1px; opacity: 1;"></path><path transform="translate(7.5,53)" d="M0,3.989422804014327A3.989422804014327,3.989422804014327 0 1,1 0,-3.989422804014327A3.989422804014327,3.989422804014327 0 1,1 0,3.989422804014327Z" style="fill: none; stroke: #2ca02c; stroke-width: 1px; opacity: 1;"></path><path transform="translate(7.5,68)" d="M0,3.989422804014327A3.989422804014327,3.989422804014327 0 1,1 0,-3.989422804014327A3.989422804014327,3.989422804014327 0 1,1 0,3.989422804014327Z" style="fill: none; stroke: #d62728; stroke-width: 1px; opacity: 1;"></path><path transform="translate(7.5,83)" d="M0,3.989422804014327A3.989422804014327,3.989422804014327 0 1,1 0,-3.989422804014327A3.989422804014327,3.989422804014327 0 1,1 0,3.989422804014327Z" style="fill: none; stroke: #9467bd; stroke-width: 1px; opacity: 1;"></path><path transform="translate(7.5,98)" d="M0,3.989422804014327A3.989422804014327,3.989422804014327 0 1,1 0,-3.989422804014327A3.989422804014327,3.989422804014327 0 1,1 0,3.989422804014327Z" style="fill: none; stroke: #8c564b; stroke-width: 1px; opacity: 1;"></path><path transform="translate(7.5,113)" d="M0,3.989422804014327A3.989422804014327,3.989422804014327 0 1,1 0,-3.989422804014327A3.989422804014327,3.989422804014327 0 1,1 0,3.989422804014327Z" style="fill: none; stroke: #e377c2; stroke-width: 1px; opacity: 1;"></path><path transform="translate(7.5,128)" d="M0,3.989422804014327A3.989422804014327,3.989422804014327 0 1,1 0,-3.989422804014327A3.989422804014327,3.989422804014327 0 1,1 0,3.989422804014327Z" style="fill: none; stroke: #7f7f7f; stroke-width: 1px; opacity: 1;"></path><path transform="translate(7.5,143)" d="M0,3.989422804014327A3.989422804014327,3.989422804014327 0 1,1 0,-3.989422804014327A3.989422804014327,3.989422804014327 0 1,1 0,3.989422804014327Z" style="fill: none; stroke: #bcbd22; stroke-width: 1px; opacity: 1;"></path><path transform="translate(7.5,158)" d="M0,3.989422804014327A3.989422804014327,3.989422804014327 0 1,1 0,-3.989422804014327A3.989422804014327,3.989422804014327 0 1,1 0,3.989422804014327Z" style="fill: none; stroke: #17becf; stroke-width: 1px; opacity: 1;"></path></g><g id="g74" class="type-text" style="pointer-events: none;"><text x="16" y="23" text-anchor="start" dy=".35em" style="font-style: normal; font-variant: normal; font-weight: normal; font-size: 10px; line-height: normal; font-family: sans-serif; fill: #000000; opacity: 1;">2Bergen - Biomedische Bibliotheek</text><text x="16" y="38" text-anchor="start" dy=".35em" style="font-style: normal; font-variant: normal; font-weight: normal; font-size: 10px; line-height: normal; font-family: sans-serif; fill: #000000; opacity: 1;">Arts</text><text x="16" y="53" text-anchor="start" dy=".35em" style="font-style: normal; font-variant: normal; font-weight: normal; font-size: 10px; line-height: normal; font-family: sans-serif; fill: #000000; opacity: 1;">Business and Economics</text><text x="16" y="68" text-anchor="start" dy=".35em" style="font-style: normal; font-variant: normal; font-weight: normal; font-size: 10px; line-height: normal; font-family: sans-serif; fill: #000000; opacity: 1;">Campuslibrary Arenberg</text><text x="16" y="83" text-anchor="start" dy=".35em" style="font-style: normal; font-variant: normal; font-weight: normal; font-size: 10px; line-height: normal; font-family: sans-serif; fill: #000000; opacity: 1;">Central Library</text><text x="16" y="98" text-anchor="start" dy=".35em" style="font-style: normal; font-variant: normal; font-weight: normal; font-size: 10px; line-height: normal; font-family: sans-serif; fill: #000000; opacity: 1;">Institute of Philosophy</text><text x="16" y="113" text-anchor="start" dy=".35em" style="font-style: normal; font-variant: normal; font-weight: normal; font-size: 10px; line-height: normal; font-family: sans-serif; fill: #000000; opacity: 1;">Law</text><text x="16" y="128" text-anchor="start" dy=".35em" style="font-style: normal; font-variant: normal; font-weight: normal; font-size: 10px; line-height: normal; font-family: sans-serif; fill: #000000; opacity: 1;">Learning Centre AGORA</text><text x="16" y="143" text-anchor="start" dy=".35em" style="font-style: normal; font-variant: normal; font-weight: normal; font-size: 10px; line-height: normal; font-family: sans-serif; fill: #000000; opacity: 1;">Psychology and Educational Sciences</text><text x="16" y="158" text-anchor="start" dy=".35em" style="font-style: normal; font-variant: normal; font-weight: normal; font-size: 10px; line-height: normal; font-family: sans-serif; fill: #000000; opacity: 1;">Social Sciences</text></g></g></g></g></g></g></svg>